<svg width="100" height="27" viewBox="0 0 100 27" fill="none" xmlns="http://www.w3.org/2000/svg">
<path d="M33.4355 18.4844H27.2715L26.0996 22H22.3613L28.7129 4.9375H31.9707L38.3574 22H34.6191L33.4355 18.4844ZM28.2207 15.6367H32.4863L30.3418 9.25L28.2207 15.6367ZM43.3027 22H39.9043V4H43.3027V22ZM45.6113 15.5664C45.6113 13.6211 46.0723 12.0547 46.9941 10.8672C47.9238 9.67969 49.1738 9.08594 50.7441 9.08594C52.1348 9.08594 53.2168 9.5625 53.9902 10.5156L54.1309 9.32031H57.2012V21.5781C57.2012 22.6875 56.9473 23.6523 56.4395 24.4727C55.9395 25.293 55.2324 25.918 54.3184 26.3477C53.4043 26.7773 52.334 26.9922 51.1074 26.9922C50.1777 26.9922 49.2715 26.8047 48.3887 26.4297C47.5059 26.0625 46.8379 25.5859 46.3848 25L47.8848 22.9375C48.7285 23.8828 49.752 24.3555 50.9551 24.3555C51.8535 24.3555 52.5527 24.1133 53.0527 23.6289C53.5527 23.1523 53.8027 22.4727 53.8027 21.5898V20.9102C53.0215 21.793 51.9941 22.2344 50.7207 22.2344C49.1973 22.2344 47.9629 21.6406 47.0176 20.4531C46.0801 19.2578 45.6113 17.6758 45.6113 15.707V15.5664ZM48.998 15.8125C48.998 16.9609 49.2285 17.8633 49.6895 18.5195C50.1504 19.168 50.7832 19.4922 51.5879 19.4922C52.6191 19.4922 53.3574 19.1055 53.8027 18.332V13C53.3496 12.2266 52.6191 11.8398 51.6113 11.8398C50.7988 11.8398 50.1582 12.1719 49.6895 12.8359C49.2285 13.5 48.998 14.4922 48.998 15.8125ZM66.9395 12.4961C66.4785 12.4336 66.0723 12.4023 65.7207 12.4023C64.4395 12.4023 63.5996 12.8359 63.2012 13.7031V22H59.8145V9.32031H63.0137L63.1074 10.832C63.7871 9.66797 64.7285 9.08594 65.9316 9.08594C66.3066 9.08594 66.6582 9.13672 66.9863 9.23828L66.9395 12.4961ZM67.6309 15.543C67.6309 14.2852 67.873 13.1641 68.3574 12.1797C68.8418 11.1953 69.5371 10.4336 70.4434 9.89453C71.3574 9.35547 72.416 9.08594 73.6191 9.08594C75.3301 9.08594 76.7246 9.60938 77.8027 10.6562C78.8887 11.7031 79.4941 13.125 79.6191 14.9219L79.6426 15.7891C79.6426 17.7344 79.0996 19.2969 78.0137 20.4766C76.9277 21.6484 75.4707 22.2344 73.6426 22.2344C71.8145 22.2344 70.3535 21.6484 69.2598 20.4766C68.1738 19.3047 67.6309 17.7109 67.6309 15.6953V15.543ZM71.0176 15.7891C71.0176 16.9922 71.2441 17.9141 71.6973 18.5547C72.1504 19.1875 72.7988 19.5039 73.6426 19.5039C74.4629 19.5039 75.1035 19.1914 75.5645 18.5664C76.0254 17.9336 76.2559 16.9258 76.2559 15.543C76.2559 14.3633 76.0254 13.4492 75.5645 12.8008C75.1035 12.1523 74.4551 11.8281 73.6191 11.8281C72.791 11.8281 72.1504 12.1523 71.6973 12.8008C71.2441 13.4414 71.0176 14.4375 71.0176 15.7891ZM92.7559 17.3945L94.4199 9.32031H97.6895L94.4551 22H91.6191L89.2168 14.0195L86.8145 22H83.9902L80.7559 9.32031H84.0254L85.6777 17.3828L87.998 9.32031H90.4473L92.7559 17.3945Z" fill="#FBF8F8"/>
<path d="M8.81725 11.1021L13.3143 11.001L13.2816 8.01572C12.5661 7.25336 9.57178 7.3914 8.78455 8.11682L8.81725 11.1021Z" fill="#0D988C"/>
<path d="M21.1201 4.30421C18.0369 2.75568 14.5299 1.98085 10.9665 2.06096C7.40311 2.14107 3.91471 3.07317 0.867074 4.75952C0.341262 6.29745 0.0656083 8.29736 0.0844051 10.0134C0.149851 15.9885 3.80066 21.3606 8.95325 23.5135C9.67866 23.817 10.4338 24.0622 11.2098 24.2466C11.9819 24.0276 12.7317 23.7482 13.4503 23.4119C18.5522 21.0289 22.0845 15.4951 22.0191 9.52034C22.0001 7.80425 21.6784 5.81777 21.1201 4.30421ZM14.5795 17.8222L13.4256 21.1582L13.3363 13.0035C12.6208 12.2405 9.62647 12.3789 8.83924 13.1046L8.92856 21.2593L7.70232 17.9726C5.56265 15.9635 3.9739 13.0911 3.93924 9.92679C3.92896 9.06681 4.01561 8.20674 4.19788 7.35949C6.32268 6.41573 8.64831 5.89883 11.0082 5.84578C13.3681 5.79273 15.7039 6.20483 17.8483 7.05262C18.0498 7.89115 18.1558 8.74692 18.1648 9.60699C18.1991 12.7735 16.6764 15.7174 14.5795 17.8222Z" fill="#0D988C"/>
</svg>
