<svg width="192" height="48" viewBox="0 0 192 48" fill="none" xmlns="http://www.w3.org/2000/svg">
<path d="M68.2028 32.8477H57.4156L55.3649 39H48.8229L59.9381 9.14062H65.6393L76.816 39H70.274L68.2028 32.8477ZM59.0768 27.8643H66.5416L62.7887 16.6875L59.0768 27.8643ZM85.4703 39H79.5231V7.5H85.4703V39ZM89.5104 27.7412C89.5104 24.3369 90.317 21.5957 91.9303 19.5176C93.5573 17.4395 95.7448 16.4004 98.4928 16.4004C100.926 16.4004 102.82 17.2344 104.173 18.9023L104.42 16.8105H109.793V38.2617C109.793 40.2031 109.348 41.8916 108.46 43.3271C107.585 44.7627 106.347 45.8564 104.748 46.6084C103.148 47.3604 101.275 47.7363 99.1285 47.7363C97.5016 47.7363 95.9156 47.4082 94.3707 46.752C92.8258 46.1094 91.6569 45.2754 90.8639 44.25L93.4889 40.6406C94.9655 42.2949 96.7565 43.1221 98.8619 43.1221C100.434 43.1221 101.658 42.6982 102.533 41.8506C103.408 41.0166 103.845 39.8271 103.845 38.2822V37.0928C102.478 38.6377 100.68 39.4102 98.4518 39.4102C95.7858 39.4102 93.6256 38.3711 91.9713 36.293C90.3307 34.2012 89.5104 31.4326 89.5104 27.9873V27.7412ZM95.4371 28.1719C95.4371 30.1816 95.8405 31.7607 96.6471 32.9092C97.4537 34.0439 98.5612 34.6113 99.9694 34.6113C101.774 34.6113 103.066 33.9346 103.845 32.5811V23.25C103.052 21.8965 101.774 21.2197 100.01 21.2197C98.5885 21.2197 97.4674 21.8008 96.6471 22.9629C95.8405 24.125 95.4371 25.8613 95.4371 28.1719ZM126.835 22.3682C126.028 22.2588 125.317 22.2041 124.702 22.2041C122.46 22.2041 120.99 22.9629 120.293 24.4805V39H114.366V16.8105H119.964L120.129 19.4561C121.318 17.4189 122.965 16.4004 125.071 16.4004C125.727 16.4004 126.342 16.4893 126.917 16.667L126.835 22.3682ZM128.045 27.7002C128.045 25.499 128.468 23.5371 129.316 21.8145C130.164 20.0918 131.38 18.7588 132.966 17.8154C134.566 16.8721 136.419 16.4004 138.524 16.4004C141.518 16.4004 143.959 17.3164 145.845 19.1484C147.746 20.9805 148.805 23.4688 149.024 26.6133L149.065 28.1309C149.065 31.5352 148.115 34.2695 146.214 36.334C144.314 38.3848 141.764 39.4102 138.565 39.4102C135.366 39.4102 132.809 38.3848 130.895 36.334C128.995 34.2832 128.045 31.4941 128.045 27.9668V27.7002ZM133.971 28.1309C133.971 30.2363 134.368 31.8496 135.161 32.9707C135.954 34.0781 137.089 34.6318 138.565 34.6318C140.001 34.6318 141.122 34.085 141.928 32.9912C142.735 31.8838 143.138 30.1201 143.138 27.7002C143.138 25.6357 142.735 24.0361 141.928 22.9014C141.122 21.7666 139.987 21.1992 138.524 21.1992C137.075 21.1992 135.954 21.7666 135.161 22.9014C134.368 24.0225 133.971 25.7656 133.971 28.1309ZM172.013 30.9404L174.925 16.8105H180.647L174.987 39H170.024L165.82 25.0342L161.616 39H156.673L151.013 16.8105H156.735L159.627 30.9199L163.687 16.8105H167.973L172.013 30.9404Z" fill="#FBF8F8"/>
<path d="M19.6842 20.2996L29.2919 20.0836L29.2275 14.1977C27.7003 12.6973 21.3029 12.9805 19.6197 14.4137L19.6842 20.2996Z" fill="#0D988C"/>
<path d="M45.9806 6.85088C39.3965 3.80911 31.9054 2.29438 24.2923 2.46553C16.6792 2.63668 9.22479 4.4874 2.71069 7.82363C1.58455 10.8579 0.992027 14.8021 1.02909 18.1856C1.15812 29.9661 8.94812 40.5447 19.9524 44.7703C21.5016 45.3661 23.1145 45.8468 24.7721 46.2075C26.422 45.7727 28.0243 45.2192 29.5602 44.5535C40.4643 39.8359 48.0209 28.912 47.8919 17.132C47.8545 13.7486 47.1708 9.83305 45.9806 6.85088ZM31.9827 33.5283L29.5115 40.11L29.3354 24.0319C27.8082 22.5302 21.4108 22.8141 19.7276 24.2479L19.9037 40.326L17.2899 33.8503C12.7222 29.8968 9.33317 24.2394 9.26483 18.0004C9.24442 16.3049 9.43109 14.6088 9.82204 12.9376C14.3632 11.0689 19.3327 10.0412 24.3746 9.92781C29.4164 9.81446 34.406 10.6184 38.9858 12.282C39.4148 13.9345 39.6398 15.6214 39.6573 17.3172C39.7249 23.5603 36.4665 29.3704 31.9827 33.5283Z" fill="#0D988C"/>
</svg>
