<svg width="28" height="24" viewBox="0 0 28 24" fill="none" xmlns="http://www.w3.org/2000/svg">
<path d="M4.76 2.00002L5.21 2.89002L5.76 4.00002H10V9.00002H2V2.00002H4.76ZM5.38 2.4224e-05H1C0.734784 2.4224e-05 0.48043 0.105381 0.292893 0.292918C0.105357 0.480454 0 0.734808 0 1.00002V10C0 10.2652 0.105357 10.5196 0.292893 10.7071C0.48043 10.8947 0.734784 11 1 11H11C11.2652 11 11.5196 10.8947 11.7071 10.7071C11.8946 10.5196 12 10.2652 12 10V3.00002C12 2.73481 11.8946 2.48045 11.7071 2.29292C11.5196 2.10538 11.2652 2.00002 11 2.00002H7L6.28 0.550024C6.19614 0.383589 6.06743 0.243901 5.90841 0.146718C5.74938 0.0495362 5.56636 -0.00127277 5.38 2.4224e-05V2.4224e-05Z" fill="#393030"/>
<path d="M20.76 2.00002L21.21 2.89002L21.76 4.00002H26V9.00002H18V2.00002H20.76V2.00002ZM21.38 2.4224e-05H17C16.7348 2.4224e-05 16.4804 0.105381 16.2929 0.292918C16.1054 0.480454 16 0.734808 16 1.00002V10C16 10.2652 16.1054 10.5196 16.2929 10.7071C16.4804 10.8947 16.7348 11 17 11H27C27.2652 11 27.5196 10.8947 27.7071 10.7071C27.8946 10.5196 28 10.2652 28 10V3.00002C28 2.73481 27.8946 2.48045 27.7071 2.29292C27.5196 2.10538 27.2652 2.00002 27 2.00002H23L22.28 0.550024C22.1961 0.383589 22.0674 0.243901 21.9084 0.146718C21.7494 0.0495362 21.5664 -0.00127277 21.38 2.4224e-05V2.4224e-05Z" fill="#393030"/>
<path d="M4.76 15L5.21 15.89L5.76 17H10V22H2V15H4.76ZM5.38 13H1C0.734784 13 0.48043 13.1054 0.292893 13.2929C0.105357 13.4805 0 13.7348 0 14V23C0 23.2652 0.105357 23.5196 0.292893 23.7071C0.48043 23.8947 0.734784 24 1 24H11C11.2652 24 11.5196 23.8947 11.7071 23.7071C11.8946 23.5196 12 23.2652 12 23V16C12 15.7348 11.8946 15.4805 11.7071 15.2929C11.5196 15.1054 11.2652 15 11 15H7L6.28 13.55C6.19614 13.3836 6.06743 13.2439 5.90841 13.1467C5.74938 13.0495 5.56636 12.9987 5.38 13V13Z" fill="#393030"/>
<path d="M20.76 15L21.21 15.89L21.76 17H26V22H18V15H20.76V15ZM21.38 13H17C16.7348 13 16.4804 13.1054 16.2929 13.2929C16.1054 13.4805 16 13.7348 16 14V23C16 23.2652 16.1054 23.5196 16.2929 23.7071C16.4804 23.8947 16.7348 24 17 24H27C27.2652 24 27.5196 23.8947 27.7071 23.7071C27.8946 23.5196 28 23.2652 28 23V16C28 15.7348 27.8946 15.4805 27.7071 15.2929C27.5196 15.1054 27.2652 15 27 15H23L22.28 13.55C22.1961 13.3836 22.0674 13.2439 21.9084 13.1467C21.7494 13.0495 21.5664 12.9987 21.38 13V13Z" fill="#393030"/>
</svg>
