<svg width="29" height="28" viewBox="0 0 29 28" fill="none" xmlns="http://www.w3.org/2000/svg">
<path d="M0 27.8632H29L26.5935 5.35623C26.5756 3.46677 26.6167 2.42039 26.6167 2.42039C26.2416 2.55535 25.6834 2.6073 25.0149 2.6073C24.9018 2.6073 24.7834 2.60505 24.663 2.60222C24.6606 1.42258 24.6819 0.757935 24.6819 0.757935C24.1014 1.65015 22.8621 1.87716 21.4494 1.87716C19.9824 1.87716 18.329 1.63264 17.0298 1.63264C15.0254 1.63264 14.5971 3.19967 14.5043 3.87335C14.4115 3.19684 13.9814 1.6366 11.9813 1.6366C10.6821 1.6366 9.02963 1.88111 7.5632 1.88111C6.14897 1.88111 4.9097 1.6541 4.32922 0.760758C4.32922 0.760758 4.35048 1.42484 4.34758 2.60166C4.2282 2.60392 4.1093 2.60674 3.99572 2.60674C3.3263 2.60674 2.7695 2.55479 2.39443 2.41983C2.39443 2.41983 2.43358 3.4199 2.4186 5.23538L0 27.8632ZM25.0149 3.65876C25.259 3.65876 25.4828 3.65199 25.6882 3.639C25.6631 6.70698 25.7747 15.0881 27.3745 25.9331C27.0782 25.8775 26.7828 25.8148 26.4886 25.745C26.6781 25.653 26.8284 25.5276 26.9299 25.3588C25.0961 16.2836 24.7273 7.89396 24.6722 3.65312C24.7882 3.65594 24.9037 3.65876 25.0149 3.65876ZM17.2183 3.07939C18.1999 3.07939 19.5136 3.21435 20.9032 3.35722C21.8737 3.45717 22.865 3.55768 23.7694 3.61415C23.8249 7.79006 24.1783 15.9838 25.8994 24.8511C25.7694 24.8765 25.5891 24.8963 25.3407 24.8963C24.4223 24.8963 23.1067 24.6236 21.8346 24.3593C20.402 24.0622 18.921 23.7545 17.7127 23.7545C16.776 23.7545 16.0385 23.96 15.457 24.2746C15.4348 24.2853 15.4092 24.2932 15.3884 24.3045L15.385 4.53404C15.4019 4.25508 15.5701 3.07939 17.2183 3.07939ZM5.2432 3.61415C6.14752 3.55768 7.13787 3.45717 8.10792 3.35722C9.49798 3.21491 10.8117 3.07939 11.7943 3.07939C13.3888 3.07939 13.602 4.16812 13.6266 4.55719L13.6223 24.3039C13.5841 24.2842 13.5386 24.2684 13.4985 24.2497C12.9243 23.951 12.2061 23.7556 11.2969 23.7556C10.0886 23.7556 8.60768 24.0639 7.17557 24.361C5.90247 24.6258 4.58732 24.8986 3.66898 24.8986C3.42055 24.8986 3.23978 24.8788 3.1117 24.8539C4.83333 15.9854 5.18665 7.78893 5.2432 3.61415ZM3.32388 3.639C3.52978 3.65199 3.75308 3.65876 3.99717 3.65876C4.10833 3.65876 4.22433 3.65594 4.34033 3.65368C4.28475 7.89339 3.91548 16.2853 2.08075 25.3622C2.18177 25.5299 2.33063 25.6552 2.51768 25.7467C2.21753 25.8167 1.92222 25.8806 1.63512 25.9336C3.2364 15.0881 3.34853 6.70698 3.32388 3.639Z" fill="#393030"/>
<path d="M11.2119 4.32126C12.4521 4.32126 12.861 4.67182 12.8654 4.67544L12.9804 4.48751L13.0979 4.3038C13.05 4.25922 12.5908 3.86047 11.2249 3.86047C10.1969 3.86047 8.92767 4.18513 7.8015 4.47064C6.9808 4.68026 6.26982 4.86156 5.86285 4.86156L5.8295 5.33018C6.27755 5.33018 7.00931 5.14285 7.85466 4.92601C8.96633 4.64231 10.2201 4.32126 11.2119 4.32126Z" fill="#393030"/>
<path d="M11.1471 6.68258C12.4115 6.68258 12.8296 7.04699 12.8335 7.05061L12.9505 6.85666L13.0703 6.66511C13.0215 6.61632 12.5536 6.20251 11.1607 6.20251C10.1123 6.20251 8.81795 6.53862 7.66955 6.83798C6.83193 7.05422 6.10694 7.24336 5.69224 7.24336L5.65695 7.73185C6.11419 7.73185 6.85997 7.5367 7.72272 7.31263C8.85565 7.01688 10.136 6.68258 11.1471 6.68258Z" fill="#393030"/>
<path d="M11.0799 9.14021C12.3699 9.14021 12.7953 9.51788 12.8001 9.52269L12.9195 9.32031L13.0422 9.12214C12.992 9.07154 12.514 8.64087 11.0934 8.64087C10.0243 8.64087 8.70384 8.99083 7.53176 9.30164C6.67674 9.52751 5.93627 9.72448 5.51384 9.72448L5.47662 10.2316C5.94352 10.2316 6.70526 10.0293 7.58492 9.79555C8.74154 9.48655 10.0475 9.14021 11.0799 9.14021Z" fill="#393030"/>
<path d="M11.0089 11.6975C12.325 11.6975 12.7595 12.0927 12.7648 12.0963L12.8866 11.8861L13.0113 11.6777C12.9606 11.6265 12.4729 11.1771 11.0238 11.1771C9.93248 11.1771 8.58398 11.5415 7.38773 11.8662C6.51483 12.1017 5.75986 12.3053 5.32728 12.3053L5.28958 12.8354C5.76518 12.8354 6.54431 12.6239 7.44235 12.38C8.62362 12.0589 9.95568 11.6975 11.0089 11.6975Z" fill="#393030"/>
<path d="M10.9359 14.3629C12.2795 14.3629 12.7237 14.7749 12.7276 14.7791L12.8533 14.5593L12.9809 14.3424C12.9282 14.2888 12.4308 13.8214 10.9508 13.8214C9.83725 13.8214 8.46023 14.2009 7.23837 14.5382C6.34613 14.7833 5.57522 14.9972 5.13345 14.9972L5.0943 15.5495C5.58005 15.5495 6.37465 15.3291 7.29298 15.0737C8.4989 14.7394 9.859 14.3629 10.9359 14.3629Z" fill="#393030"/>
<path d="M10.859 17.1428C12.2317 17.1428 12.6851 17.5716 12.6894 17.5764L12.817 17.3475L12.948 17.1217C12.8948 17.0657 12.3868 16.5778 10.8755 16.5778C9.7377 16.5778 8.33023 16.9741 7.08226 17.3259C6.17021 17.5825 5.3819 17.8047 4.93095 17.8047L4.88986 18.38C5.38673 18.38 6.1997 18.1505 7.13736 17.8854C8.36986 17.5355 9.76041 17.1428 10.859 17.1428Z" fill="#393030"/>
<path d="M10.7798 20.0446C12.1824 20.0446 12.645 20.494 12.6498 20.4988L12.7803 20.2591L12.9132 20.023C12.8591 19.9639 12.34 19.455 10.7952 19.455C9.63283 19.455 8.19491 19.8694 6.91843 20.2356C5.98704 20.5036 5.18036 20.7367 4.72023 20.7367L4.67673 21.3391C5.18471 21.3391 6.01556 21.0981 6.97449 20.8205C8.23503 20.4554 9.65651 20.0446 10.7798 20.0446Z" fill="#393030"/>
<path d="M10.6952 23.0776C12.1307 23.0776 12.6029 23.5456 12.6077 23.5504L12.7411 23.2999L12.8779 23.0541C12.8218 22.9927 12.2921 22.4602 10.7131 22.4602C9.52406 22.4602 8.05328 22.8927 6.74779 23.277C5.79514 23.5577 4.97009 23.7986 4.49933 23.7986L4.45438 24.4287C4.97299 24.4287 5.82269 24.1781 6.80386 23.8884C8.09388 23.5071 9.54774 23.0776 10.6952 23.0776Z" fill="#393030"/>
<path d="M16.1463 4.67544C16.1501 4.67182 16.559 4.32126 17.7993 4.32126C18.792 4.32126 20.0453 4.64231 21.1565 4.92601C22.0018 5.14285 22.7336 5.33018 23.1812 5.33018L23.1478 4.86156C22.7409 4.86156 22.0299 4.68026 21.2092 4.47064C20.084 4.18513 18.8143 3.86047 17.7862 3.86047C16.4213 3.86047 15.9611 4.25922 15.9128 4.3038L16.0307 4.48751L16.1463 4.67544Z" fill="#393030"/>
<path d="M17.8514 6.203C16.458 6.203 15.9896 6.61681 15.9418 6.6656L16.0616 6.85714L16.1781 7.0511C16.1825 7.04808 16.6001 6.68307 17.865 6.68307C18.8761 6.68307 20.1555 7.01676 21.2884 7.31251C22.1507 7.53718 22.8969 7.73174 23.3542 7.73174L23.3189 7.24324C22.9052 7.24324 22.1797 7.05471 21.3421 6.83787C20.1941 6.53911 18.8998 6.203 17.8514 6.203Z" fill="#393030"/>
<path d="M17.9182 8.64087C16.4977 8.64087 16.0197 9.07154 15.9699 9.12214L16.0922 9.32031L16.2115 9.52269C16.2159 9.51848 16.6422 9.14021 17.9317 9.14021C18.9646 9.14021 20.2691 9.48655 21.4262 9.79495C22.3059 10.0287 23.0681 10.231 23.534 10.231L23.4978 9.72388C23.0749 9.72388 22.3349 9.52691 21.4794 9.30103C20.3088 8.99023 18.9873 8.64087 17.9182 8.64087Z" fill="#393030"/>
<path d="M17.9877 11.1771C16.5377 11.1771 16.05 11.6259 16.0002 11.6777L16.1244 11.8861L16.2467 12.0963C16.2515 12.0927 16.6856 11.6975 18.0022 11.6975C19.0558 11.6975 20.3884 12.0589 21.5701 12.3794C22.4682 12.6233 23.2463 12.8348 23.7224 12.8348L23.6833 12.3053C23.2512 12.3053 22.4962 12.1017 21.6233 11.8662C20.4275 11.5415 19.079 11.1771 17.9877 11.1771Z" fill="#393030"/>
<path d="M18.0597 13.8214C16.5793 13.8214 16.0829 14.2888 16.0312 14.3424L16.1588 14.5593L16.283 14.7791C16.2883 14.7749 16.7311 14.3629 18.0757 14.3629C19.1516 14.3629 20.5127 14.7394 21.7181 15.0737C22.6364 15.3291 23.4315 15.5495 23.9177 15.5495L23.8781 14.9972C23.4363 14.9972 22.6649 14.7833 21.7737 14.5382C20.5518 14.2009 19.1748 13.8214 18.0597 13.8214Z" fill="#393030"/>
<path d="M18.1351 16.5778C16.6237 16.5778 16.1162 17.0663 16.0626 17.1217L16.1936 17.3475L16.3212 17.5764C16.325 17.5716 16.7784 17.1428 18.1511 17.1428C19.2492 17.1428 20.6402 17.5355 21.8732 17.8848C22.8109 18.1499 23.6234 18.3794 24.1202 18.3794L24.0787 17.8041C23.6282 17.8041 22.8399 17.5819 21.9293 17.3253C20.6808 16.9741 19.2739 16.5778 18.1351 16.5778Z" fill="#393030"/>
<path d="M18.2154 19.4545C16.6706 19.4545 16.152 19.964 16.0974 20.0225L16.2298 20.2586L16.3608 20.4983C16.3652 20.4935 16.8282 20.0442 18.2313 20.0442C19.3541 20.0442 20.7761 20.4556 22.0361 20.8194C22.9951 21.097 23.8264 21.338 24.3339 21.338L24.2899 20.7356C23.8293 20.7356 23.0231 20.5025 22.0927 20.2345C20.8157 19.8689 19.3778 19.4545 18.2154 19.4545Z" fill="#393030"/>
<path d="M18.2976 22.4596C16.718 22.4596 16.1878 22.9927 16.1322 23.0535L16.2681 23.2993L16.4014 23.5498C16.4068 23.545 16.8799 23.077 18.314 23.077C19.4629 23.077 20.9167 23.5065 22.2058 23.8877C23.1865 24.1775 24.0367 24.428 24.5562 24.428L24.5103 23.798C24.0396 23.798 23.2145 23.5571 22.2624 23.2764C20.9569 22.8921 19.4856 22.4596 18.2976 22.4596Z" fill="#393030"/>
</svg>
