<svg width="28" height="34" viewBox="0 0 28 34" fill="none" xmlns="http://www.w3.org/2000/svg">
<path d="M25.2 7.98601H19.6V4.37197L16.8 0.757935H11.2L8.4 4.37197V7.98601H2.8C1.26 7.98601 0 9.61232 0 11.6L0 20.6351C0 21.9904 0.56 23.1288 1.4 23.7613V29.6702C1.4 31.676 2.646 33.2843 4.2 33.2843H23.8C25.354 33.2843 26.6 31.676 26.6 29.6702V23.7432C27.426 23.1107 28 21.9543 28 20.6351V11.6C28 9.61232 26.74 7.98601 25.2 7.98601ZM11.2 4.37197H16.8V7.98601H11.2V4.37197ZM2.8 11.6H25.2V20.6351H18.2V15.2141H9.8V20.6351H2.8V11.6ZM15.4 22.4421H12.6V18.8281H15.4V22.4421ZM23.8 29.6702H4.2V24.2492H9.8V26.0562H18.2V24.2492H23.8V29.6702Z" fill="#393030"/>
</svg>
