<svg width="35" height="35" viewBox="0 0 35 35" fill="none" xmlns="http://www.w3.org/2000/svg">
<path d="M0.439195 26.1912C0.249613 25.6649 -0.32205 23.8508 0.245238 22.4268L14.5762 31.2093C14.6493 31.2543 14.7323 31.278 14.8168 31.278C14.9013 31.278 14.9843 31.2543 15.0574 31.2093L35 18.989V22.6327L14.8168 35L0.437737 26.1912H0.439195ZM0.27878 12.7992C-0.141217 14.1566 0.300655 15.9847 0.459612 16.5543L14.8168 25.3522L35 12.9849V9.33663L15.0574 21.5585C14.9843 21.6034 14.9013 21.6271 14.8168 21.6271C14.7323 21.6271 14.6493 21.6034 14.5762 21.5585L0.277321 12.7992H0.27878ZM19.4849 9.80254C19.4201 9.84137 19.3478 9.86384 19.2736 9.86821C19.1993 9.87258 19.1251 9.85874 19.0567 9.82775C18.9883 9.79677 18.9275 9.74947 18.8791 9.68953C18.8307 9.62959 18.796 9.55863 18.7776 9.48213L18.3693 7.72842L15.2689 7.456C15.167 7.44678 15.0705 7.40332 14.9934 7.33195C14.9163 7.26057 14.8627 7.16499 14.8402 7.05906C14.8178 6.95313 14.8277 6.84237 14.8686 6.74286C14.9095 6.64334 14.9792 6.56024 15.0676 6.50562L23.2022 1.52154L20.7201 0L1.01815 12.0732L14.8168 20.5276L34.5188 8.45436L28.1021 4.52282L19.4834 9.80099L19.4849 9.80254ZM19.2195 7.12631L19.5578 8.57819L27.1382 3.93309L24.1632 2.10972L16.8818 6.57372L18.7922 6.74089C18.8926 6.74978 18.9879 6.79192 19.0645 6.86134C19.1412 6.93077 19.1954 7.02399 19.2195 7.12785V7.12631ZM35 14.1644L15.0574 26.3847C14.9843 26.4296 14.9013 26.4533 14.8168 26.4533C14.7323 26.4533 14.6493 26.4296 14.5762 26.3847L0.245238 17.6037C-0.323508 19.0262 0.249613 20.8403 0.439195 21.365L14.8168 30.1769L35 17.8096V14.1628V14.1644Z" fill="white"/>
</svg>
