<svg width="28" height="30" viewBox="0 0 28 30" fill="none" xmlns="http://www.w3.org/2000/svg">
<path d="M10.2236 19.6351C6.8115 19.6351 0 21.7337 0 25.8995V27.4656C0 28.3269 0.57508 29.0316 1.27796 29.0316H19.1693C19.8722 29.0316 20.4473 28.3269 20.4473 27.4656V25.8995C20.4473 21.7337 13.6358 19.6351 10.2236 19.6351ZM4.77955 10.2387H15.6805C16.0256 10.2387 16.3067 9.89412 16.3067 9.47127V9.43995C16.3067 9.23643 16.2407 9.04124 16.1233 8.89733C16.0059 8.75342 15.8466 8.67257 15.6805 8.67257H15.3355C15.3355 6.35477 14.3003 4.36585 12.7796 3.26959V4.75737C12.7796 5.19587 12.4984 5.54041 12.1406 5.54041C11.7827 5.54041 11.5016 5.19587 11.5016 4.75737V2.6275C11.0927 2.50221 10.6709 2.40824 10.2236 2.40824C9.77636 2.40824 9.35463 2.50221 8.94569 2.6275V4.75737C8.94569 5.19587 8.66454 5.54041 8.30671 5.54041C7.94888 5.54041 7.66773 5.19587 7.66773 4.75737V3.26959C6.14697 4.36585 5.11182 6.35477 5.11182 8.67257H4.77955C4.69732 8.67257 4.61589 8.69242 4.53992 8.73099C4.46394 8.76955 4.39491 8.82607 4.33676 8.89733C4.27862 8.96859 4.23249 9.05319 4.20102 9.14629C4.16955 9.23939 4.15335 9.33918 4.15335 9.43995V9.48694C4.15335 9.89412 4.4345 10.2387 4.77955 10.2387ZM10.2236 16.503C12.6006 16.503 14.5815 14.4984 15.1565 11.8047H5.29073C5.86581 14.4984 7.84665 16.503 10.2236 16.503ZM26.8115 5.90061L28 4.60076L27.0415 2.56485L25.5208 3.17562C25.3419 3.00336 25.1374 2.86241 24.9201 2.75278L24.6006 0.842163H22.6837L22.3642 2.75278C22.147 2.86241 21.9425 3.00336 21.7508 3.17562L20.2428 2.56485L19.2843 4.60076L20.4728 5.90061C20.4473 6.16684 20.4473 6.44874 20.4728 6.71497L19.2843 8.04614L20.2428 10.082L21.7764 9.48694C21.9425 9.64354 22.1342 9.76883 22.3259 9.87846L22.6837 11.8047H24.6006L24.9457 9.89412C25.1502 9.78449 25.3291 9.6592 25.508 9.5026L27.0288 10.0977L27.9872 8.0618L26.7987 6.73063C26.8371 6.43308 26.8243 6.16684 26.8115 5.90061ZM23.6422 8.28105C23.2185 8.28105 22.8122 8.07481 22.5126 7.70768C22.213 7.34056 22.0447 6.84264 22.0447 6.32345C22.0447 5.80426 22.213 5.30634 22.5126 4.93922C22.8122 4.57209 23.2185 4.36585 23.6422 4.36585C24.0658 4.36585 24.4722 4.57209 24.7717 4.93922C25.0713 5.30634 25.2396 5.80426 25.2396 6.32345C25.2396 6.84264 25.0713 7.34056 24.7717 7.70768C24.4722 8.07481 24.0658 8.28105 23.6422 8.28105ZM23.5144 13.0419L22.4281 13.4804C22.3003 13.3552 22.1597 13.2612 22.0064 13.1829L21.7764 11.8047H20.4089L20.1789 13.1672C20.0256 13.2455 19.8722 13.3552 19.7444 13.4648L18.6709 13.0263L17.9808 14.4827L18.8243 15.4067C18.8115 15.6103 18.8115 15.7982 18.8243 15.9862L17.9808 16.9415L18.6709 18.3979L19.77 17.9751C19.8978 18.0847 20.0256 18.1787 20.1661 18.257L20.3962 19.6351H21.7636L22.0064 18.2727C22.147 18.1944 22.2875 18.1004 22.4153 17.9908L23.5016 18.4136L24.1917 16.9571L23.3482 16.0018C23.361 15.7982 23.361 15.6103 23.3482 15.4224L24.1917 14.4984L23.5144 13.0419ZM21.0863 17.1138C20.4601 17.1138 19.9489 16.4873 19.9489 15.7199C19.9489 14.9526 20.4601 14.3261 21.0863 14.3261C21.7125 14.3261 22.2236 14.9526 22.2236 15.7199C22.2236 16.4873 21.7125 17.1138 21.0863 17.1138Z" fill="#393030"/>
</svg>
