<svg width="12" height="11" viewBox="0 0 12 11" fill="none" xmlns="http://www.w3.org/2000/svg">
<path d="M11 5.25001C11.0019 5.90994 10.8306 6.56095 10.5 7.15C10.108 7.85588 9.5054 8.44959 8.75968 8.86464C8.01396 9.27969 7.15457 9.4997 6.27777 9.5C5.54451 9.50172 4.82117 9.34754 4.16666 9.05L1 10L2.05555 7.15C1.72496 6.56095 1.55364 5.90994 1.55555 5.25001C1.55589 4.46089 1.80034 3.68744 2.26151 3.01629C2.72268 2.34514 3.38236 1.8028 4.16666 1.45001C4.82117 1.15248 5.54451 0.998294 6.27777 1.00001H6.55555C7.71352 1.05751 8.80723 1.49739 9.62729 2.23544C10.4473 2.97349 10.9361 3.95784 11 5.00001V5.25001Z" stroke="#9494A1" stroke-width="0.5" stroke-linecap="round" stroke-linejoin="round"/>
<path d="M6.19537 6.61914C6.19993 6.35026 6.23639 6.13379 6.30475 5.96973C6.37311 5.80566 6.52008 5.61312 6.74567 5.39209C6.97125 5.16878 7.11595 5.01156 7.17975 4.92041C7.24583 4.82699 7.29596 4.72559 7.33014 4.61621C7.3666 4.50456 7.38483 4.37809 7.38483 4.23682C7.38483 3.95199 7.30849 3.72868 7.15582 3.56689C7.00543 3.40283 6.79466 3.3208 6.5235 3.3208C6.25006 3.3208 6.02903 3.39941 5.86041 3.55664C5.69407 3.71159 5.60862 3.92236 5.60406 4.18896H5.19733C5.20188 3.81527 5.32835 3.51676 5.57672 3.29346C5.82509 3.06787 6.14069 2.95508 6.5235 2.95508C6.91543 2.95508 7.22418 3.07015 7.44977 3.30029C7.67763 3.52816 7.79156 3.83805 7.79156 4.22998C7.79156 4.47607 7.73574 4.70736 7.62408 4.92383C7.51243 5.13802 7.30052 5.38867 6.98834 5.67578C6.73086 5.89225 6.60211 6.20671 6.60211 6.61914H6.19537ZM6.14069 7.76074C6.14069 7.68327 6.16461 7.61833 6.21246 7.56592C6.26259 7.51123 6.33209 7.48389 6.42096 7.48389C6.50755 7.48389 6.57591 7.51123 6.62604 7.56592C6.67845 7.61833 6.70465 7.68327 6.70465 7.76074C6.70465 7.83594 6.67845 7.89974 6.62604 7.95215C6.57591 8.00228 6.50755 8.02734 6.42096 8.02734C6.33209 8.02734 6.26259 8.00228 6.21246 7.95215C6.16461 7.89974 6.14069 7.83594 6.14069 7.76074Z" fill="#9494A1"/>
</svg>
