<svg width="30" height="29" viewBox="0 0 30 29" fill="none" xmlns="http://www.w3.org/2000/svg">
<path d="M0.0312269 14.8293C0.356354 22.4014 6.79919 28.47 14.695 28.47C22.5908 28.47 29.0336 22.4014 29.3588 14.8293C29.3781 14.7816 29.3887 14.731 29.39 14.6798C29.39 14.6478 29.3781 14.6202 29.3716 14.5909C29.3744 14.4717 29.39 14.3551 29.39 14.235C29.39 6.38618 22.7975 0 14.695 0C6.59254 0 0 6.38618 0 14.235C0 14.3551 0.0156134 14.4717 0.0183687 14.5909C0.0119397 14.6202 0 14.6478 0 14.6798C0 14.7332 0.0137766 14.7822 0.0312269 14.8293ZM22.8884 20.2333C21.6404 19.7315 20.3435 19.3526 19.0172 19.1025C19.1623 17.8098 19.2477 16.4672 19.2743 15.1256H23.8481C23.7646 16.953 23.4293 18.6781 22.8884 20.2333ZM24.7657 15.1247H28.4247C28.2628 17.547 27.4167 19.8796 25.9789 21.8676C25.2647 21.3807 24.5099 20.9522 23.7223 20.5865C24.3147 18.9237 24.6793 17.0784 24.7657 15.1247ZM11.3785 19.8276C12.4756 19.6599 13.5844 19.5749 14.695 19.5731C15.8192 19.5731 16.9296 19.6639 18.0106 19.8276C17.3732 24.5741 15.9808 27.5803 14.695 27.5803C13.4092 27.5803 12.0168 24.5741 11.3785 19.8276ZM12.7736 27.2814C10.247 26.4967 8.1098 24.1933 6.82032 21.0678C8.00145 20.5893 9.2291 20.2265 10.4849 19.985C10.9064 23.0954 11.677 25.8054 12.7736 27.2814ZM11.2729 9.52766C12.4051 9.69848 13.5491 9.78504 14.695 9.78656C15.8408 9.78504 16.9849 9.69848 18.1171 9.52766C18.2751 10.969 18.3687 12.5419 18.3687 14.235H11.0212C11.0212 12.5419 11.1149 10.969 11.2729 9.52766ZM18.355 15.1247C18.333 16.4 18.2534 17.6738 18.1162 18.9423C16.9843 18.7714 15.8405 18.6849 14.695 18.6834C13.5491 18.6849 12.4051 18.7715 11.2729 18.9423C11.1353 17.6738 11.0556 16.4 11.0341 15.1247H18.355ZM18.906 19.985C20.1955 20.2359 21.4253 20.6007 22.5706 21.0678C21.2811 24.1933 19.1439 26.4967 16.6173 27.2814C17.713 25.8054 18.4836 23.0954 18.906 19.985ZM19.2872 14.235C19.2872 12.6015 19.1935 10.9467 19.0172 9.36841C20.3765 9.10862 21.677 8.72783 22.8884 8.23762C23.5166 10.0428 23.8794 12.0766 23.8794 14.235H19.2872ZM18.906 8.48495C18.4836 5.3746 17.7139 2.66372 16.6164 1.18862C19.143 1.97333 21.2802 4.27673 22.5697 7.4022C21.389 7.88115 20.1616 8.24389 18.906 8.48495ZM18.0115 8.64242C16.9296 8.80613 15.8192 8.89687 14.695 8.89687C13.5708 8.89687 12.4604 8.80613 11.3785 8.64242C12.0168 3.89594 13.4092 0.889687 14.695 0.889687C15.9808 0.889687 17.3732 3.89594 18.0115 8.64242ZM10.484 8.48495C9.22822 8.24335 8.00058 7.88062 6.8194 7.4022C8.10888 4.27673 10.2461 1.97333 12.7727 1.18862C11.677 2.66461 10.9064 5.3746 10.484 8.48495ZM10.3728 9.36841C10.1934 10.9848 10.1033 12.6093 10.1028 14.235H5.51062C5.51062 12.0766 5.87341 10.0428 6.50162 8.23673C7.71304 8.72783 9.01355 9.10773 10.3728 9.36841ZM10.1157 15.1247C10.1423 16.4663 10.2277 17.8089 10.3728 19.1025C9.01355 19.3623 7.71304 19.7431 6.50162 20.2333C5.96066 18.6781 5.62543 16.953 5.54185 15.1247H10.1157ZM5.66676 20.5865C4.87969 20.9526 4.12522 21.3811 3.41108 21.8676C1.97315 19.8797 1.12705 17.547 0.965278 15.1247H4.62433C4.71067 17.0784 5.07529 18.9237 5.66676 20.5865ZM3.96122 22.5803C4.604 22.1418 5.28181 21.7535 5.98821 21.4192C6.91032 23.6301 8.23747 25.4655 9.83279 26.7066C7.53128 25.8621 5.50428 24.4376 3.96122 22.5803ZM19.5572 26.7057C21.1535 25.4655 22.4797 23.6292 23.4018 21.4183C24.1274 21.76 24.7996 22.1532 25.4288 22.5794C23.8862 24.4372 21.8591 25.8618 19.5572 26.7057ZM24.7978 14.235C24.7978 11.9512 24.4047 9.79813 23.7232 7.88352C24.5315 7.50807 25.2827 7.07657 25.9798 6.60237C27.602 8.83731 28.4722 11.5029 28.4716 14.235H24.7978ZM25.4297 5.88973C24.8006 6.31589 24.1283 6.70913 23.4027 7.05077C22.4806 4.8399 21.1535 3.00358 19.5581 1.76336C21.8594 2.60839 23.8863 4.03282 25.4297 5.88973ZM9.83279 1.76425C8.23655 3.00447 6.91032 4.84079 5.98821 7.05166C5.28186 6.71694 4.60407 6.3284 3.96122 5.88973C5.50409 4.03245 7.53117 2.60819 9.83279 1.76425ZM3.41108 6.60237C4.1251 7.08912 4.87958 7.51764 5.66676 7.88352C4.94846 9.92855 4.58534 12.0748 4.59219 14.235H0.918437C0.918437 11.3969 1.84514 8.76787 3.41108 6.60237Z" fill="#393030"/>
</svg>
