<svg width="37" height="37" viewBox="0 0 37 37" fill="none" xmlns="http://www.w3.org/2000/svg">
<path d="M36.1 19.0494H36.1V19.0469C36.1 19.0152 36.0942 18.9877 36.0889 18.9665C36.0839 18.9465 36.081 18.9378 36.0784 18.9274C36.0801 18.868 36.0843 18.8088 36.0886 18.7472L36.09 18.7261C36.0951 18.6535 36.1 18.5777 36.1 18.5C36.1 8.79571 28.2043 0.9 18.5 0.9C8.79571 0.9 0.9 8.79571 0.9 18.5C0.9 18.5777 0.90489 18.6535 0.909949 18.7261C0.910441 18.7332 0.910935 18.7402 0.911426 18.7472C0.91575 18.8088 0.919902 18.868 0.921586 18.9274C0.92049 18.9317 0.919363 18.9358 0.918053 18.9405C0.916224 18.947 0.91404 18.9548 0.911096 18.9665C0.905753 18.9877 0.9 19.0152 0.9 19.0469C0.9 19.1229 0.917593 19.1906 0.937901 19.2497C1.33487 28.6048 9.04799 36.1 18.5 36.1C27.9516 36.1 35.6645 28.6054 36.062 19.2509C36.0854 19.1862 36.0983 19.1182 36.1 19.0494ZM14.5132 12.8277C15.8326 13.028 17.1652 13.1294 18.4999 13.1313H18.5001C19.8348 13.1294 21.1674 13.028 22.4868 12.8277C22.665 14.5392 22.7715 16.4009 22.7749 18.4H14.2251C14.2285 16.4009 14.335 14.5392 14.5132 12.8277ZM14.2421 19.6938H22.7568C22.7291 21.1897 22.6386 22.6838 22.4856 24.1722C21.1666 23.972 19.8344 23.8705 18.5001 23.8687H18.4999C17.1653 23.8705 15.8327 23.972 14.5133 24.1722C14.3599 22.6839 14.2694 21.1897 14.2421 19.6938ZM29.2956 19.6948C29.1908 21.8541 28.8078 23.8944 28.1964 25.7408C26.7629 25.1532 25.276 24.7054 23.7564 24.4035C23.9202 22.8708 24.0182 21.2828 24.0515 19.6948H29.2956ZM29.3738 26.2568C30.0563 24.2523 30.4796 22.0366 30.5886 19.6938H34.7434C34.5373 22.582 33.5598 25.3621 31.913 27.7439C31.1066 27.1828 30.2577 26.6856 29.3738 26.2568ZM14.6623 25.4591C15.9323 25.2637 17.2152 25.1646 18.5002 25.1625C19.7999 25.1625 21.0845 25.2681 22.3366 25.4592C21.957 28.3272 21.3601 30.666 20.6717 32.2899C20.3235 33.1115 19.9539 33.7452 19.5809 34.1718C19.2065 34.6 18.8409 34.8063 18.5 34.8063C18.1591 34.8063 17.7935 34.6 17.4191 34.1718C17.0461 33.7452 16.6764 33.1115 16.3281 32.2899C15.6396 30.6659 15.0424 28.3271 14.6623 25.4591ZM13.4012 25.688C13.8841 29.302 14.7411 32.4838 15.9589 34.3466C13.1347 33.3195 10.7352 30.6117 9.25188 26.9544C10.5914 26.4009 11.9809 25.9769 13.4012 25.688ZM27.7493 26.9542C26.266 30.6117 23.8663 33.3196 21.042 34.3466C22.2588 32.4839 23.1159 29.3022 23.5999 25.6882C25.0571 25.9876 26.4488 26.4138 27.7493 26.9542ZM24.0687 18.4C24.0651 16.4521 23.957 14.4816 23.7564 12.5974C25.3119 12.2847 26.8026 11.835 28.1965 11.2605C28.911 13.416 29.3268 15.8349 29.3373 18.4H24.0687ZM23.5999 11.312C23.116 7.69821 22.26 4.51555 21.0414 2.65355C23.8655 3.68072 26.2649 6.38841 27.7481 10.0457C26.4091 10.5996 25.02 11.0236 23.5999 11.312ZM22.3376 11.5408C21.0844 11.7319 19.7998 11.8375 18.5 11.8375C17.2002 11.8375 15.9156 11.7319 14.6624 11.5408C15.0424 8.67279 15.6396 6.33404 16.3281 4.71007C16.6764 3.88853 17.0461 3.25482 17.4191 2.82821C17.7935 2.39998 18.1591 2.19375 18.5 2.19375C18.8409 2.19375 19.2065 2.39998 19.5809 2.82821C19.9539 3.25482 20.3236 3.88853 20.6719 4.71007C21.3604 6.33404 21.9576 8.67279 22.3376 11.5408ZM9.25079 10.0456C10.7341 6.38818 13.1337 3.68042 15.958 2.65338C14.7412 4.51612 13.884 7.6979 13.4001 11.312C11.9798 11.023 10.5904 10.5989 9.25079 10.0456ZM7.66271 18.4C7.67325 15.8349 8.089 13.416 8.80346 11.2595C10.1975 11.8349 11.6882 12.2837 13.2437 12.5974C13.0396 14.5249 12.9354 16.4617 12.9314 18.4H7.66271ZM7.70443 19.6938H12.9485C12.9818 21.2818 13.0798 22.8699 13.2436 24.4037C11.6881 24.7164 10.1974 25.1661 8.80349 25.7406C8.19214 23.8942 7.80923 21.854 7.70443 19.6938ZM7.62512 26.2568C6.74183 26.686 5.89324 27.1832 5.08701 27.7439C3.44003 25.3622 2.46255 22.582 2.25656 19.6938H6.4114C6.5204 22.0366 6.94371 24.2523 7.62512 26.2568ZM12.175 33.5104C9.71891 32.473 7.55099 30.8498 5.86259 28.7798C6.56831 28.2892 7.30915 27.8511 8.0791 27.4692C9.08755 29.9285 10.4924 32.0099 12.175 33.5104ZM31.1372 28.779C29.4495 30.8494 27.2817 32.4725 24.8255 33.5093C26.5088 32.0095 27.9126 29.9271 28.921 27.4679C29.7096 27.8577 30.4452 28.3006 31.1372 28.779ZM30.6311 18.4C30.6202 15.6518 30.1628 13.0583 29.3749 10.7432C30.2806 10.3036 31.1261 9.8033 31.9142 9.25596C33.7785 11.9424 34.7865 15.1301 34.806 18.4H30.6311ZM31.1383 8.21997C30.4463 8.69831 29.7107 9.14126 28.9221 9.53101C27.9138 7.07198 26.5092 4.98984 24.8269 3.49009C27.2823 4.52789 29.4497 6.1507 31.1383 8.21997ZM5.86258 8.22021C7.55065 6.15034 9.71846 4.52755 12.1744 3.49079C10.4912 4.99054 9.08745 7.07275 8.07912 9.53187C7.30921 9.14941 6.56838 8.71101 5.86258 8.22021ZM2.19405 18.4C2.2147 15.0064 3.28566 11.8609 5.087 9.25613C5.89319 9.81709 6.7419 10.3143 7.62541 10.7434C6.7959 13.211 6.37149 15.7967 6.36865 18.4H2.19405Z" fill="white" stroke="white" stroke-width="0.2"/>
</svg>
