<svg width="29" height="35" viewBox="0 0 29 35" fill="none" xmlns="http://www.w3.org/2000/svg">
<path d="M8.32455 21.9167L14.5 28.4378L20.6754 21.9167C25.3038 22.1286 29 26.1274 29 31.0627V31.7189C29 33.5303 27.6083 35 25.8929 35H3.10714C1.39174 35 0 33.5303 0 31.7189V31.0627C0 26.1274 3.69621 22.1286 8.32455 21.9167ZM28.1196 5.45652L27.7054 5.55905V9.55105C28.1585 9.83814 28.4821 10.3371 28.4821 10.9387C28.4821 11.5129 28.1844 11.9914 27.7636 12.2853L28.7734 16.5439C28.8835 17.0155 28.6375 17.5009 28.2815 17.5009H25.5757C25.2196 17.5009 24.9737 17.0155 25.0837 16.5439L26.0935 12.2853C25.6728 11.9914 25.375 11.5129 25.375 10.9387C25.375 10.3371 25.6987 9.83814 26.1518 9.55105V5.95552L21.8795 7.04238C22.4362 8.2181 22.7857 9.53054 22.7857 10.9387C22.7857 15.7714 19.0766 19.6882 14.5 19.6882C9.92344 19.6882 6.21429 15.7714 6.21429 10.9387C6.21429 9.53054 6.55737 8.2181 7.12054 7.04238L0.886831 5.45652C-0.291294 5.15575 -0.291294 3.60407 0.886831 3.30331L13.2118 0.158928C14.0533 -0.0529759 14.9402 -0.0529759 15.7817 0.158928L28.1196 3.29647C29.2913 3.59724 29.2913 5.15575 28.1196 5.45652Z" fill="white"/>
</svg>
