<svg width="25" height="32" viewBox="0 0 25 32" fill="none" xmlns="http://www.w3.org/2000/svg">
<path d="M12.5 23.9971C6.36425 24.0148 0 25.854 0 30.3457V31.1158H25V30.3457C25 25.8515 18.6357 24.0123 12.5 23.9971Z" fill="url(#paint0_radial_18_75)"/>
<path d="M20.8871 19.9234C20.5864 19.3483 20.9689 18.7631 21.6231 18.0386C22.6597 16.8884 23.7878 14.2208 22.7391 11.5126C22.7463 11.4974 22.5323 11.0414 22.5395 11.0262L22.1089 11.0034C21.9718 10.9832 17.2359 10.973 12.4952 10.973C7.75451 10.973 3.01861 10.9832 2.88151 11.0034C2.88151 11.0034 2.24412 11.4974 2.24893 11.5126C1.20265 14.2208 2.3283 16.8859 3.36496 18.0386C4.01678 18.7631 4.39921 19.3483 4.10096 19.9234C3.80993 20.4833 2.94404 20.5643 2.94404 20.5643C2.94404 20.5643 3.14368 21.1369 3.62472 21.4459C4.06969 21.7322 4.61809 21.7981 4.99571 21.8082C4.99571 21.8082 6.47493 23.9641 10.3425 23.9641H14.6479C18.5155 23.9641 19.9947 21.8082 19.9947 21.8082C20.3724 21.7981 20.9208 21.7322 21.3657 21.4459C21.8468 21.1369 22.0464 20.5643 22.0464 20.5643C22.0464 20.5643 21.1781 20.4833 20.8871 19.9234Z" fill="#312D2D"/>
<path d="M12.4904 23.9616V21.5701L19.3621 20.9976L19.9875 21.8082C19.9875 21.8082 18.5083 23.9641 14.6406 23.9641L12.4904 23.9616Z" fill="url(#paint1_radial_18_75)"/>
<path d="M19.9731 20.7619C18.9436 19.1152 21.2262 18.4996 21.2262 18.4996L21.2286 18.5022C20.8317 19.0215 20.6513 19.475 20.8847 19.9234C21.1757 20.4833 22.0416 20.5643 22.0416 20.5643C22.0416 20.5643 20.8606 21.6689 19.9731 20.7619Z" fill="url(#paint2_radial_18_75)"/>
<path d="M22.7439 11.5126C23.7661 14.1347 22.691 16.8352 21.6832 17.9752C21.5461 18.1323 20.9592 18.7378 20.8245 19.2217C20.8245 19.2217 18.5299 15.8498 17.8444 13.8687C17.7073 13.4684 17.5799 13.058 17.563 12.6324C17.551 12.3132 17.5967 11.9332 17.7723 11.6621C17.9863 11.3302 22.6212 11.2314 22.6212 11.2314C22.6212 11.234 22.7439 11.5126 22.7439 11.5126Z" fill="url(#paint3_radial_18_75)"/>
<path d="M2.24647 11.5127C1.22665 14.1348 2.30179 16.8353 3.30718 17.9728C3.44668 18.1299 4.03115 18.7353 4.16584 19.2192C4.16584 19.2192 6.46044 15.8473 7.14593 13.8662C7.28543 13.466 7.41051 13.0556 7.42734 12.63C7.43937 12.3107 7.39367 11.9307 7.21809 11.6597C7.00402 11.3278 6.75388 11.4165 6.39069 11.4165C5.69798 11.4165 2.66498 11.229 2.42927 11.229C2.43167 11.2341 2.24647 11.5127 2.24647 11.5127Z" fill="url(#paint4_radial_18_75)"/>
<path d="M12.5 23.9616V21.5701L5.62823 20.9976L5.00287 21.8082C5.00287 21.8082 6.48209 23.9641 10.3497 23.9641L12.5 23.9616Z" fill="url(#paint5_radial_18_75)"/>
<path d="M5.01729 20.7619C6.04673 19.1152 3.76417 18.4996 3.76417 18.4996L3.76176 18.5022C4.15862 19.0215 4.33902 19.475 4.10571 19.9234C3.81468 20.4833 2.94879 20.5643 2.94879 20.5643C2.94879 20.5643 4.12976 21.6689 5.01729 20.7619Z" fill="url(#paint6_radial_18_75)"/>
<path d="M10.3088 22.5149V27.8248C10.3088 29.1574 11.1988 30.2391 12.2956 30.2391H12.6924C13.7892 30.2391 14.6791 29.1599 14.6791 27.8248V22.5149H10.3088Z" fill="#EDC391"/>
<path d="M9.76526 25.5347L10.6913 31.1081H14.3929L15.2203 25.5347H9.76526Z" fill="#81D4FA"/>
<path d="M14.6864 24.0577C16.1103 24.1667 16.7765 24.2959 16.7765 24.2959L17.5293 26.1452L16.2666 27.2574L16.9473 28.8205L15.6052 31.0979H13.9528L14.6864 24.0577Z" fill="url(#paint7_linear_18_75)"/>
<path d="M10.3064 24.0577C8.88253 24.1667 8.21628 24.2959 8.21628 24.2959L7.46344 26.1452L8.72619 27.2574L8.04551 28.8205L9.38763 31.0979H11.04L10.3064 24.0577Z" fill="url(#paint8_linear_18_75)"/>
<path d="M5.02209 26.125C5.39972 25.9173 5.83987 25.6133 6.04432 25.4258C6.50612 25.0028 7.60051 23.9134 8.41588 24.681C9.2962 25.4942 8.39183 26.7761 8.04307 27.3081C7.86989 27.5741 7.7376 27.868 7.62937 28.1669" stroke="#03A9F4" stroke-width="3" stroke-miterlimit="10"/>
<path d="M4.26448 27.9035C4.14663 27.9238 4.01915 27.977 3.89408 27.8503C3.8123 27.7667 3.70887 27.5286 3.73774 27.3234C3.7666 27.1157 3.98548 27.0295 4.45209 26.8193C4.81528 26.6571 5.14961 26.4925 5.45267 26.2771L5.00048 25.6843C5.00048 25.6843 4.47855 25.9934 4.19473 26.1099C3.69204 26.3126 3.11959 26.5431 3.02579 27.2119C2.92477 27.9314 3.29998 28.4432 3.58861 28.6737C3.82433 28.8637 4.05042 28.9549 4.26929 28.9701C4.60843 28.9929 4.83452 28.7598 4.83452 28.4001C4.83452 28.0404 4.5002 27.863 4.26448 27.9035Z" fill="url(#paint9_linear_18_75)"/>
<path d="M6.00587 29.2817C6.00347 29.4084 5.9722 29.5477 6.1093 29.6592C6.20069 29.7326 6.43881 29.8061 6.62642 29.7478C6.81643 29.687 6.86694 29.4489 6.99683 28.9321C7.09785 28.5318 7.20368 28.1569 7.36242 27.8098L7.98297 28.1949C7.98297 28.1949 7.7665 28.7826 7.69916 29.0968C7.5813 29.6516 7.44661 30.2798 6.83087 30.4724C6.16943 30.6826 5.63306 30.3609 5.3757 30.0949C5.16404 29.8745 5.04618 29.6541 5.00048 29.4261C4.93073 29.0765 5.11834 28.8054 5.45507 28.7548C5.79181 28.7041 6.01068 29.0284 6.00587 29.2817Z" fill="url(#paint10_linear_18_75)"/>
<path d="M10.3521 23.4448C9.23851 23.4676 8.44478 24.0655 8.14172 24.4354L8.68771 24.9319C8.69493 24.9243 9.27699 24.2378 10.3521 24.2074V23.4448Z" fill="#03A9F4"/>
<path d="M17.8468 25.6564C17.2623 24.2707 16.358 23.7438 15.8721 23.5538C15.4271 23.379 14.9942 23.308 14.6767 23.2802V24.0427C14.9365 24.068 15.2756 24.1288 15.622 24.2656C16.002 24.4151 16.7115 24.8331 17.1878 25.9655C17.8564 27.5514 18.0248 27.9643 18.0272 27.9643L18.6886 27.6629C18.6886 27.6629 18.5203 27.2525 17.8468 25.6564Z" fill="#03A9F4"/>
<path d="M18.7945 30.3635C19.7244 30.3635 20.4782 29.5695 20.4782 28.5901C20.4782 27.6107 19.7244 26.8168 18.7945 26.8168C17.8646 26.8168 17.1108 27.6107 17.1108 28.5901C17.1108 29.5695 17.8646 30.3635 18.7945 30.3635Z" fill="url(#paint11_linear_18_75)"/>
<path d="M18.7945 29.6033C19.3258 29.6033 19.7566 29.1497 19.7566 28.59C19.7566 28.0303 19.3258 27.5767 18.7945 27.5767C18.2631 27.5767 17.8324 28.0303 17.8324 28.59C17.8324 29.1497 18.2631 29.6033 18.7945 29.6033Z" fill="#9E9E9E"/>
<path d="M19.0663 12.4703H5.91927C4.50258 12.4703 3.34326 13.7725 3.34326 15.3609C3.34326 16.9493 4.50258 18.2515 5.91927 18.2515H19.0639C20.4806 18.2515 21.6399 16.9493 21.6399 15.3609C21.6399 13.7725 20.483 12.4703 19.0663 12.4703Z" fill="#EDC391"/>
<path d="M12.4928 2.49878C8.30766 2.49878 4.43042 7.21336 4.43042 14.0002C4.43042 20.7491 8.42551 24.0855 12.4928 24.0855C16.56 24.0855 20.5551 20.7466 20.5551 13.9977C20.5551 7.21336 16.6779 2.49878 12.4928 2.49878Z" fill="#F9DDBD"/>
<path d="M10.28 12.3156C10.0563 12.004 9.54158 11.5531 8.541 11.5531C7.54042 11.5531 7.0233 12.0066 6.80201 12.3156C6.7034 12.4524 6.72745 12.612 6.7972 12.7083C6.85974 12.797 7.04735 12.8806 7.2542 12.8071C7.46105 12.7336 7.86513 12.5132 8.541 12.5082C9.21687 12.5132 9.62095 12.7336 9.8278 12.8071C10.0346 12.8806 10.2223 12.7995 10.2848 12.7083C10.3521 12.612 10.3786 12.4524 10.28 12.3156Z" fill="#454140"/>
<path d="M18.186 12.3156C17.9623 12.004 17.4476 11.5531 16.447 11.5531C15.4464 11.5531 14.9293 12.0066 14.708 12.3156C14.6094 12.4524 14.6335 12.612 14.7032 12.7083C14.7657 12.797 14.9534 12.8806 15.1602 12.8071C15.3671 12.7336 15.7711 12.5132 16.447 12.5082C17.1229 12.5132 17.527 12.7336 17.7338 12.8071C17.9407 12.8806 18.1283 12.7995 18.1908 12.7083C18.2581 12.612 18.2846 12.4524 18.186 12.3156Z" fill="#454140"/>
<path d="M8.53856 15.8852C9.19345 15.8852 9.72434 15.3067 9.72434 14.5932C9.72434 13.8796 9.19345 13.3011 8.53856 13.3011C7.88368 13.3011 7.35278 13.8796 7.35278 14.5932C7.35278 15.3067 7.88368 15.8852 8.53856 15.8852Z" fill="#312D2D"/>
<path d="M16.4469 15.8852C17.1018 15.8852 17.6327 15.3067 17.6327 14.5932C17.6327 13.8796 17.1018 13.3011 16.4469 13.3011C15.7921 13.3011 15.2612 13.8796 15.2612 14.5932C15.2612 15.3067 15.7921 15.8852 16.4469 15.8852Z" fill="#312D2D"/>
<path d="M14.518 18.9835C13.7531 19.4623 11.2396 19.4623 10.4748 18.9835C10.0346 18.7073 9.58484 19.1304 9.76764 19.5509C9.94803 19.9639 11.3166 20.924 12.5024 20.924C13.6882 20.924 15.0399 19.9639 15.2203 19.5509C15.4007 19.1304 14.9581 18.7073 14.518 18.9835Z" fill="#444444"/>
<path d="M13.4212 16.9365C13.3948 16.9264 13.3707 16.9188 13.3442 16.9163H11.6413C11.6149 16.9188 11.5884 16.9264 11.5644 16.9365C11.4104 17.0024 11.3263 17.1696 11.3984 17.3495C11.4706 17.5293 11.8097 18.0309 12.4928 18.0309C13.1759 18.0309 13.515 17.5268 13.5872 17.3495C13.6593 17.1696 13.5751 17.0024 13.4212 16.9365Z" fill="#DBA689"/>
<path d="M22.1306 6.05582C21.5437 5.12101 20.2281 3.867 19.0471 3.7834C18.8571 2.58765 17.6424 1.57431 16.4663 1.18164C13.2842 0.120162 11.2133 1.31084 10.102 1.94925C9.87113 2.08098 8.37748 2.95499 7.33361 2.32925C6.67939 1.93658 6.69142 0.875103 6.69142 0.875103C6.69142 0.875103 4.64216 1.69844 5.34208 3.99114C4.63735 4.02154 3.71374 4.33567 3.22547 5.37688C2.64341 6.61823 2.85026 7.65437 3.01862 8.15091C2.41251 8.69305 1.65005 9.84573 2.17198 11.3429C2.56644 12.4703 4.13706 12.9896 4.13706 12.9896C4.02642 15.0189 4.3848 16.2678 4.57481 16.7719C4.60848 16.8606 4.72634 16.853 4.74799 16.7618C4.9861 15.7561 5.79907 12.2524 5.7173 11.6419C5.7173 11.6419 8.44724 11.0719 11.0497 9.05279C11.5789 8.64238 12.1537 8.29278 12.7646 8.03691C16.0333 6.66636 16.7164 9.00465 16.7164 9.00465C16.7164 9.00465 18.9822 8.54612 19.6652 11.8598C19.9226 13.1011 20.0958 15.0898 20.2425 16.4806C20.2521 16.5794 20.3796 16.5997 20.4157 16.5085C20.6442 15.9562 21.1012 14.8618 21.2094 13.7446C21.2479 13.3519 22.2533 12.8326 22.6862 11.1453C23.2659 8.89572 22.5563 6.73223 22.1306 6.05582Z" fill="#312D2D"/>
<path d="M21.2046 13.7546C21.243 13.362 22.2484 12.8426 22.6814 11.1554C22.7271 10.9755 22.7656 10.7931 22.8016 10.6107C23.1528 8.56124 22.5226 6.67895 22.1306 6.05575C21.587 5.19187 20.4229 4.05693 19.3189 3.82386C19.2226 3.81119 19.1288 3.79852 19.0399 3.79346C19.0399 3.79346 19.1192 4.33813 18.91 4.77133C18.6406 5.33374 18.0898 5.46801 18.0898 5.46801C20.9688 8.50297 20.7644 11.0414 21.2046 13.7546Z" fill="url(#paint12_radial_18_75)"/>
<path d="M10.7971 1.56667C10.5325 1.70094 10.3016 1.8352 10.0996 1.9492C9.86867 2.08094 8.37502 2.95495 7.33114 2.32921C6.68895 1.94414 6.68895 0.915594 6.68895 0.880127C6.3931 1.27786 5.49836 4.11776 8.11525 4.30776C9.2433 4.38883 9.93842 3.35269 10.3521 2.47614C10.5012 2.15694 10.7345 1.6908 10.7971 1.56667Z" fill="url(#paint13_radial_18_75)"/>
<path d="M16.1392 1.08033C17.8998 1.58194 18.7585 2.52688 19.0447 3.78596C19.1289 4.15583 19.2299 7.60627 12.9763 3.68462C10.6504 2.22541 11.2854 1.3134 11.5572 1.20953C12.6203 0.804195 14.1669 0.517925 16.1392 1.08033Z" fill="url(#paint14_radial_18_75)"/>
<path d="M6.68172 0.880067C6.67931 0.8826 6.6745 0.8826 6.66728 0.887667H6.66488C6.44119 0.986468 4.68297 1.84528 5.3396 3.99103L7.21087 4.3077C5.55366 2.53942 6.68893 0.875 6.68893 0.875C6.68893 0.875 6.68412 0.877533 6.68172 0.880067Z" fill="url(#paint15_radial_18_75)"/>
<path d="M6.49653 4.18604L5.33961 3.99097C5.29392 3.99097 5.13998 4.00617 5.0558 4.01883C4.40398 4.1151 3.63671 4.46977 3.2206 5.37671C2.77323 6.35459 2.78526 7.19313 2.90792 7.75301C2.944 7.94047 3.01616 8.15328 3.01616 8.15328C3.01616 8.15328 3.58861 7.58074 4.95237 7.54274L6.49653 4.18604Z" fill="url(#paint16_radial_18_75)"/>
<path d="M2.96087 8.20164C2.39083 8.73365 1.62356 9.92179 2.18879 11.3962C2.61451 12.5084 4.13462 12.9897 4.13462 12.9897C4.13462 12.9948 4.43768 13.091 4.59402 13.091L4.95 7.54297C4.22121 7.54297 3.52129 7.7735 3.0691 8.10537C3.07632 8.11297 2.95846 8.19404 2.96087 8.20164Z" fill="url(#paint17_radial_18_75)"/>
<defs>
<radialGradient id="paint0_radial_18_75" cx="0" cy="0" r="1" gradientUnits="userSpaceOnUse" gradientTransform="translate(12.5274 30.9909) rotate(179.749) scale(18.0429 10.2816)">
<stop offset="0.559" stop-color="#F5F5F5"/>
<stop offset="1" stop-color="#C6C6C6"/>
</radialGradient>
<radialGradient id="paint1_radial_18_75" cx="0" cy="0" r="1" gradientUnits="userSpaceOnUse" gradientTransform="translate(16.0003 20.5062) scale(5.63282 2.91423)">
<stop offset="0.728" stop-color="#454140" stop-opacity="0"/>
<stop offset="1" stop-color="#454140"/>
</radialGradient>
<radialGradient id="paint2_radial_18_75" cx="0" cy="0" r="1" gradientUnits="userSpaceOnUse" gradientTransform="translate(21.5487 19.6233) rotate(153.764) scale(1.68085 1.28807)">
<stop offset="0.663" stop-color="#454140"/>
<stop offset="1" stop-color="#454140" stop-opacity="0"/>
</radialGradient>
<radialGradient id="paint3_radial_18_75" cx="0" cy="0" r="1" gradientUnits="userSpaceOnUse" gradientTransform="translate(17.2346 14.6645) rotate(-94.0627) scale(7.69894 6.0954)">
<stop offset="0.725" stop-color="#454140" stop-opacity="0"/>
<stop offset="1" stop-color="#454140"/>
</radialGradient>
<radialGradient id="paint4_radial_18_75" cx="0" cy="0" r="1" gradientUnits="userSpaceOnUse" gradientTransform="translate(7.75648 14.6645) rotate(-85.9373) scale(7.69894 6.0954)">
<stop offset="0.725" stop-color="#454140" stop-opacity="0"/>
<stop offset="1" stop-color="#454140"/>
</radialGradient>
<radialGradient id="paint5_radial_18_75" cx="0" cy="0" r="1" gradientUnits="userSpaceOnUse" gradientTransform="translate(8.99051 20.5062) rotate(180) scale(5.63282 2.91423)">
<stop offset="0.728" stop-color="#454140" stop-opacity="0"/>
<stop offset="1" stop-color="#454140"/>
</radialGradient>
<radialGradient id="paint6_radial_18_75" cx="0" cy="0" r="1" gradientUnits="userSpaceOnUse" gradientTransform="translate(3.44256 19.6235) rotate(26.2365) scale(1.68085 1.28807)">
<stop offset="0.663" stop-color="#454140"/>
<stop offset="1" stop-color="#454140" stop-opacity="0"/>
</radialGradient>
<linearGradient id="paint7_linear_18_75" x1="15.7406" y1="29.2701" x2="15.7406" y2="24.152" gradientUnits="userSpaceOnUse">
<stop offset="0.335" stop-color="#E0E0E0"/>
<stop offset="0.668" stop-color="#D0D0D0"/>
<stop offset="0.987" stop-color="#BDBDBD"/>
</linearGradient>
<linearGradient id="paint8_linear_18_75" x1="9.25293" y1="29.2701" x2="9.25293" y2="24.152" gradientUnits="userSpaceOnUse">
<stop offset="0.335" stop-color="#E0E0E0"/>
<stop offset="0.668" stop-color="#D0D0D0"/>
<stop offset="0.987" stop-color="#BDBDBD"/>
</linearGradient>
<linearGradient id="paint9_linear_18_75" x1="5.27877" y1="26.1654" x2="2.88143" y2="28.7863" gradientUnits="userSpaceOnUse">
<stop stop-color="#757575"/>
<stop offset="1"/>
</linearGradient>
<linearGradient id="paint10_linear_18_75" x1="7.39682" y1="28.1029" x2="4.99949" y2="30.7236" gradientUnits="userSpaceOnUse">
<stop stop-color="#757575"/>
<stop offset="1"/>
</linearGradient>
<linearGradient id="paint11_linear_18_75" x1="18.2307" y1="27.3356" x2="19.6369" y2="30.1609" gradientUnits="userSpaceOnUse">
<stop stop-color="#757575"/>
<stop offset="1"/>
</linearGradient>
<radialGradient id="paint12_radial_18_75" cx="0" cy="0" r="1" gradientUnits="userSpaceOnUse" gradientTransform="translate(16.8263 10.601) rotate(72.9372) scale(8.98478 6.38893)">
<stop offset="0.699" stop-color="#454140" stop-opacity="0"/>
<stop offset="1" stop-color="#454140"/>
</radialGradient>
<radialGradient id="paint13_radial_18_75" cx="0" cy="0" r="1" gradientUnits="userSpaceOnUse" gradientTransform="translate(8.47147 0.758913) rotate(29.4586) scale(2.27454 2.77287)">
<stop offset="0.58" stop-color="#454140"/>
<stop offset="1" stop-color="#454140" stop-opacity="0"/>
</radialGradient>
<radialGradient id="paint14_radial_18_75" cx="0" cy="0" r="1" gradientUnits="userSpaceOnUse" gradientTransform="translate(13.4938 5.05752) rotate(-156.108) scale(7.08552 4.12638)">
<stop offset="0.699" stop-color="#454140" stop-opacity="0"/>
<stop offset="1" stop-color="#454140"/>
</radialGradient>
<radialGradient id="paint15_radial_18_75" cx="0" cy="0" r="1" gradientUnits="userSpaceOnUse" gradientTransform="translate(7.56901 2.91812) scale(2.06249 2.65744)">
<stop offset="0.702" stop-color="#454140" stop-opacity="0"/>
<stop offset="1" stop-color="#454140"/>
</radialGradient>
<radialGradient id="paint16_radial_18_75" cx="0" cy="0" r="1" gradientUnits="userSpaceOnUse" gradientTransform="translate(7.28491 6.75267) rotate(-164.179) scale(3.88273 3.79904)">
<stop offset="0.66" stop-color="#454140" stop-opacity="0"/>
<stop offset="1" stop-color="#454140"/>
</radialGradient>
<radialGradient id="paint17_radial_18_75" cx="0" cy="0" r="1" gradientUnits="userSpaceOnUse" gradientTransform="translate(6.36819 10.6871) rotate(8.24524) scale(4.06573 6.00515)">
<stop offset="0.598" stop-color="#454140" stop-opacity="0"/>
<stop offset="1" stop-color="#454140"/>
</radialGradient>
</defs>
</svg>
