<svg width="10" height="9" viewBox="0 0 10 9" fill="none" xmlns="http://www.w3.org/2000/svg">
<path d="M7.66921 2.63774C8.00058 2.63774 8.26921 2.39597 8.26921 2.09774C8.26921 1.79951 8.00058 1.55774 7.66921 1.55774C7.33784 1.55774 7.06921 1.79951 7.06921 2.09774C7.06921 2.39597 7.33784 2.63774 7.66921 2.63774Z" fill="#9494A1"/>
<path d="M5.00006 2.18933C4.49225 2.18933 3.99585 2.32485 3.57363 2.57876C3.15141 2.83267 2.82232 3.19356 2.628 3.6158C2.43367 4.03803 2.38282 4.50264 2.48189 4.95089C2.58096 5.39913 2.82549 5.81086 3.18456 6.13403C3.54363 6.45719 4.00112 6.67727 4.49916 6.76643C4.99721 6.85559 5.51345 6.80983 5.9826 6.63494C6.45175 6.46004 6.85274 6.16387 7.13486 5.78386C7.41698 5.40386 7.56756 4.9571 7.56756 4.50008C7.56756 3.88723 7.29705 3.29948 6.81555 2.86613C6.33405 2.43278 5.681 2.18933 5.00006 2.18933ZM5.00006 6.00008C4.67042 6.00008 4.34819 5.91211 4.07411 5.74728C3.80003 5.58246 3.5864 5.34819 3.46026 5.07411C3.33411 4.80002 3.30111 4.49842 3.36542 4.20745C3.42972 3.91647 3.58846 3.6492 3.82155 3.43942C4.05463 3.22964 4.35161 3.08678 4.67491 3.0289C4.99821 2.97102 5.33332 3.00073 5.63786 3.11426C5.94241 3.22779 6.2027 3.42005 6.38584 3.66673C6.56898 3.9134 6.66672 4.20341 6.66672 4.50008C6.66672 4.89791 6.49113 5.27944 6.17857 5.56074C5.86601 5.84205 5.44208 6.00008 5.00006 6.00008Z" fill="#9494A1"/>
<path d="M5 0.81075C6.335 0.81075 6.49333 0.81525 7.02042 0.837C7.33743 0.840387 7.65145 0.892774 7.94875 0.991875C8.16444 1.06676 8.36033 1.18145 8.5238 1.32858C8.68727 1.4757 8.81471 1.652 8.89792 1.84613C9.00803 2.1137 9.06624 2.39631 9.07 2.68162C9.09417 3.156 9.09917 3.2985 9.09917 4.50037C9.09917 5.70225 9.09417 5.844 9.07 6.31838C9.06624 6.60369 9.00803 6.8863 8.89792 7.15387C8.81471 7.348 8.68727 7.5243 8.5238 7.67142C8.36033 7.81855 8.16444 7.93324 7.94875 8.00813C7.65145 8.10723 7.33743 8.15961 7.02042 8.163C6.49333 8.18475 6.335 8.18925 5 8.18925C3.665 8.18925 3.50667 8.18475 2.97958 8.163C2.66257 8.15961 2.34855 8.10723 2.05125 8.00813C1.83556 7.93324 1.63967 7.81855 1.4762 7.67142C1.31273 7.5243 1.18529 7.348 1.10208 7.15387C0.991972 6.8863 0.933764 6.60369 0.93 6.31838C0.905833 5.844 0.900833 5.7015 0.900833 4.5C0.900833 3.2985 0.905833 3.156 0.93 2.68162C0.933764 2.39631 0.991972 2.1137 1.10208 1.84613C1.18529 1.652 1.31273 1.4757 1.4762 1.32858C1.63967 1.18145 1.83556 1.06676 2.05125 0.991875C2.34855 0.892774 2.66257 0.840387 2.97958 0.837C3.50667 0.81525 3.665 0.81075 5 0.81075ZM5 0C3.64208 0 3.47167 0.00525001 2.93833 0.027C2.52366 0.034536 2.1134 0.105289 1.725 0.23625C1.3928 0.351862 1.09111 0.528666 0.839257 0.755332C0.587407 0.981997 0.390957 1.25352 0.2625 1.5525C0.116941 1.90218 0.0383264 2.27154 0.03 2.64488C0.00583334 3.12488 0 3.2775 0 4.5C0 5.7225 0.00583334 5.8755 0.03 6.3555C0.0383734 6.72871 0.116987 7.09794 0.2625 7.4475C0.390957 7.74648 0.587407 8.018 0.839257 8.24467C1.09111 8.47133 1.3928 8.64814 1.725 8.76375C2.11353 8.89475 2.52393 8.96551 2.93875 8.973C3.47208 8.99475 3.64208 9 5 9C6.35792 9 6.52833 8.99475 7.06167 8.973C7.47648 8.96551 7.88689 8.89475 8.27542 8.76375C8.60762 8.64814 8.90931 8.47133 9.16116 8.24467C9.41301 8.018 9.60946 7.74648 9.73792 7.4475C9.88333 7.0978 9.96181 6.72844 9.97 6.35513C9.99417 5.87513 10 5.7225 10 4.5C10 3.2775 9.99417 3.1245 9.97 2.6445C9.96163 2.27129 9.88301 1.90206 9.7375 1.5525C9.60904 1.25352 9.41259 0.981997 9.16074 0.755332C8.90889 0.528666 8.6072 0.351862 8.275 0.23625C7.88645 0.105375 7.47604 0.0347487 7.06125 0.027375C6.52792 0.00487498 6.35833 0 5 0Z" fill="#9494A1"/>
</svg>
