<svg width="34" height="32" viewBox="0 0 34 32" fill="none" xmlns="http://www.w3.org/2000/svg">
<path d="M8.61516 21.633V6.78268H23.4413L25.0241 4.84778H7.01233V21.633H8.61516Z" fill="#393030"/>
<path d="M5.00885 2.42912H29.0513V21.7781H31.0548V1.82447C31.0548 1.34337 30.8965 0.881982 30.6147 0.541797C30.3329 0.201612 29.9507 0.010498 29.5522 0.010498H4.50796C4.10943 0.010498 3.72723 0.201612 3.44543 0.541797C3.16362 0.881982 3.00531 1.34337 3.00531 1.82447V21.7781H5.00885V2.42912Z" fill="#393030"/>
<path d="M-6.10352e-05 24.1968V28.3084C-6.10352e-05 29.1423 0.274351 29.9421 0.762808 30.5317C1.25126 31.1214 1.91375 31.4526 2.60454 31.4526H31.3953C32.0861 31.4526 32.7486 31.1214 33.2371 30.5317C33.7255 29.9421 33.9999 29.1423 33.9999 28.3084V24.1968H-6.10352e-05ZM32.0565 28.3084C32.0565 28.5009 31.9932 28.6854 31.8805 28.8215C31.7677 28.9576 31.6149 29.034 31.4555 29.034H2.56446C2.40505 29.034 2.25217 28.9576 2.13945 28.8215C2.02673 28.6854 1.9634 28.5009 1.9634 28.3084V26.047H11.931C12.0562 26.4037 12.2653 26.7084 12.5323 26.9233C12.7994 27.1382 13.1127 27.254 13.4336 27.2563H20.5763C20.8972 27.254 21.2105 27.1382 21.4776 26.9233C21.7446 26.7084 21.9537 26.4037 22.0789 26.047H32.0565V28.3084Z" fill="#393030"/>
<path d="M14.8587 17.4993L16.8869 16.3572L18.1976 19.7491L19.0089 19.2922L17.6982 15.9004L19.7265 14.7583L15.7635 12.1716L14.8587 17.4993Z" fill="#393030"/>
</svg>
