<svg width="33" height="35" viewBox="0 0 33 35" fill="none" xmlns="http://www.w3.org/2000/svg">
<path d="M29.8065 0.010498H12.7742V5.97179H14.9032V2.39502H29.8065C30.4452 2.39502 30.871 2.87192 30.871 3.58728V16.7021C30.871 17.4175 30.4452 17.8944 29.8065 17.8944H15.9677V26.2402H10.3258L6.3871 29.6977V26.2402H3.19355C2.55484 26.2402 2.12903 25.7633 2.12903 25.0479V11.9331C2.12903 11.2177 2.55484 10.7408 3.19355 10.7408H17.0323V8.35631H3.19355C1.38387 8.35631 0 9.90625 0 11.9331V25.0479C0 27.0748 1.38387 28.6247 3.19355 28.6247H4.25806V34.7052L10.9645 28.6247H18.0968V20.2789H29.8065C31.6161 20.2789 33 18.729 33 16.7021V3.58728C33 1.56043 31.6161 0.010498 29.8065 0.010498Z" fill="#393030"/>
<path d="M4.47101 23.7365H7.02585L7.66456 21.8289H10.9646L11.6033 23.7365H14.1581L10.5388 13.1254H7.98391L4.47101 23.7365ZM9.26133 16.106L10.3258 19.802H8.19682L9.26133 16.106Z" fill="#393030"/>
<path d="M19.1613 16.7023C20.3322 16.7023 21.929 16.3446 23.4193 15.51C24.9096 16.3446 26.6129 16.7023 27.6774 16.7023V14.3177C27.6774 14.3177 26.6129 14.3177 25.4419 13.8408C26.7193 12.4101 27.6774 10.2641 27.6774 7.16418V5.97192H24.4838V3.5874H22.3548V5.97192H19.1613V8.35644H25.4419C25.229 10.5025 24.3774 11.814 23.4193 12.6486C22.7806 12.0524 22.1419 11.2179 21.7161 10.1448H19.4806C19.9064 11.6948 20.5451 12.887 21.3967 13.8408C20.3322 14.3177 19.3742 14.3177 19.1613 14.3177V16.7023Z" fill="#393030"/>
</svg>
