<svg width="10" height="11" viewBox="0 0 10 11" fill="none" xmlns="http://www.w3.org/2000/svg">
<path d="M1.20187 2.64862C1.86564 2.64862 2.40374 2.0557 2.40374 1.32431C2.40374 0.592913 1.86564 0 1.20187 0C0.538095 0 0 0.592913 0 1.32431C0 2.0557 0.538095 2.64862 1.20187 2.64862Z" fill="#9494A1"/>
<path d="M3.5386 3.65216V10.9994H5.60891V7.36603C5.60891 6.4073 5.7726 5.47883 6.85142 5.47883C7.91542 5.47883 7.9286 6.57496 7.9286 7.42656V11H10V6.9708C10 4.9916 9.6133 3.47058 7.51388 3.47058C6.50591 3.47058 5.83027 4.08008 5.55398 4.65689H5.52596V3.65216H3.5386ZM0.164795 3.65216H2.2384V10.9994H0.164795V3.65216Z" fill="#9494A1"/>
</svg>
