<svg width="28" height="34" viewBox="0 0 28 34" fill="none" xmlns="http://www.w3.org/2000/svg">
<path d="M5.59998 10.2448H16.8V12.9553H5.59998V10.2448Z" fill="#393030"/>
<path d="M5.59998 15.6658H22.4V18.3763H5.59998V15.6658Z" fill="#393030"/>
<path d="M5.59998 21.0868H9.78598V23.7973H5.59998V21.0868Z" fill="#393030"/>
<path d="M16.8 4.82372L12.6 0.757935V3.46846H2.8C2.05739 3.46846 1.3452 3.75403 0.820101 4.26236C0.294999 4.77068 0 5.46011 0 6.17899V27.8632C0 28.5821 0.294999 29.2715 0.820101 29.7798C1.3452 30.2882 2.05739 30.5737 2.8 30.5737H8.4V27.8632H2.8V6.17899H12.6V8.88951L16.8 4.82372Z" fill="#393030"/>
<path d="M11.2 29.2184L15.4 33.2842V30.5736H25.2C25.9426 30.5736 26.6548 30.2881 27.1799 29.7798C27.705 29.2714 28 28.582 28 27.8631V6.17891C28 5.46003 27.705 4.7706 27.1799 4.26228C26.6548 3.75396 25.9426 3.46838 25.2 3.46838H19.6V6.17891H25.2V27.8631H15.4V25.1526L11.2 29.2184Z" fill="#393030"/>
</svg>
