<svg width="35" height="35" viewBox="0 0 35 35" fill="none" xmlns="http://www.w3.org/2000/svg">
<path d="M9.72222 0C11.1404 0 12.5005 0.563367 13.5033 1.56617C14.5061 2.56896 15.0694 3.92905 15.0694 5.34722C15.0694 6.76539 14.5061 8.12548 13.5033 9.12828C12.5005 10.1311 11.1404 10.6944 9.72222 10.6944C8.30405 10.6944 6.94396 10.1311 5.94116 9.12828C4.93837 8.12548 4.375 6.76539 4.375 5.34722C4.375 3.92905 4.93837 2.56896 5.94116 1.56617C6.94396 0.563367 8.30405 0 9.72222 0ZM9.72222 1.94444C8.81975 1.94444 7.95424 2.30295 7.31609 2.9411C6.67795 3.57924 6.31944 4.44475 6.31944 5.34722C6.31944 6.24969 6.67795 7.1152 7.31609 7.75335C7.95424 8.39149 8.81975 8.75 9.72222 8.75C10.6247 8.75 11.4902 8.39149 12.1283 7.75335C12.7665 7.1152 13.125 6.24969 13.125 5.34722C13.125 4.44475 12.7665 3.57924 12.1283 2.9411C11.4902 2.30295 10.6247 1.94444 9.72222 1.94444ZM11.0503 12.6389H2.91667C2.14312 12.6389 1.40125 12.9462 0.854272 13.4932C0.307291 14.0401 0 14.782 0 15.5556V16.5278C0 19.6136 2.345 22.7733 6.44583 23.8856C6.81528 23.2225 7.33833 22.6528 7.96444 22.2269C4.08333 21.6106 1.94444 18.9758 1.94444 16.5278V15.5556C1.94444 15.2977 2.04687 15.0504 2.2292 14.8681C2.41153 14.6858 2.65882 14.5833 2.91667 14.5833H10.3542C10.4942 13.895 10.7314 13.2417 11.0503 12.6389ZM17.5 10.6944C16.3355 10.6924 15.2024 11.0714 14.2734 11.7735C13.3445 12.4757 12.6707 13.4625 12.355 14.5833C12.1475 15.3176 12.0993 16.0878 12.2139 16.8422C12.3285 17.5966 12.6031 18.3178 13.0193 18.9574C13.4355 19.597 13.9836 20.1401 14.627 20.5505C15.2703 20.9608 15.994 21.2287 16.7494 21.3364C17.1072 20.6442 17.5389 19.9947 18.0347 19.4017C17.3863 19.5044 16.722 19.418 16.1214 19.1528C15.5204 18.8861 15.0095 18.4511 14.6505 17.9003C14.2915 17.3494 14.0998 16.7064 14.0985 16.0489C14.0973 15.3914 14.2865 14.7476 14.6434 14.1954C15.0003 13.6432 15.5095 13.2062 16.1095 12.9372C16.7095 12.6683 17.3745 12.579 18.0242 12.68C18.6739 12.781 19.2804 13.0681 19.7704 13.5066C20.2603 13.945 20.6128 14.516 20.7851 15.1505C20.9575 15.785 20.9423 16.4559 20.7414 17.0819C21.4058 16.6821 22.112 16.3561 22.8472 16.1097V16.0417C22.8466 14.7999 22.4142 13.597 21.6242 12.6389C20.6442 11.4528 19.1606 10.6944 17.5 10.6944ZM34.3719 19.2928C33.9151 18.7596 33.4071 18.2725 32.8553 17.8383C32.9875 17.4047 33.0556 16.9633 33.0556 16.5278V15.5556C33.0556 15.2977 32.9531 15.0504 32.7708 14.8681C32.5885 14.6858 32.3412 14.5833 32.0833 14.5833H24.6458C24.5085 13.9054 24.2747 13.2506 23.9517 12.6389H32.0833C32.8569 12.6389 33.5987 12.9462 34.1457 13.4932C34.6927 14.0401 35 14.782 35 15.5556V16.5278C35 17.4611 34.7861 18.4022 34.3719 19.2928ZM15.9581 23.3333H10.6944C10.3111 23.3323 9.9314 23.407 9.57707 23.5533C9.22274 23.6995 8.9008 23.9143 8.62976 24.1853C8.35872 24.4564 8.14392 24.7783 7.99771 25.1326C7.85149 25.487 7.77675 25.8667 7.77778 26.25V27.2222C7.77778 31.0547 11.3944 35 17.5 35C18.3186 35 19.0944 34.9281 19.8217 34.7958C19.145 34.2865 18.5309 33.6991 17.9919 33.0458C17.828 33.0524 17.664 33.0557 17.5 33.0556C12.5067 33.0556 9.72222 30.0183 9.72222 27.2222V26.25C9.72222 25.9921 9.82465 25.7449 10.007 25.5625C10.1893 25.3802 10.4366 25.2778 10.6944 25.2778H15.5983C15.6577 24.6199 15.7781 23.9689 15.9581 23.3333ZM30.625 5.34722C30.625 3.92905 30.0616 2.56896 29.0588 1.56617C28.056 0.563367 26.6959 0 25.2778 0C23.8596 0 22.4995 0.563367 21.4967 1.56617C20.4939 2.56896 19.9306 3.92905 19.9306 5.34722C19.9306 6.76539 20.4939 8.12548 21.4967 9.12828C22.4995 10.1311 23.8596 10.6944 25.2778 10.6944C26.6959 10.6944 28.056 10.1311 29.0588 9.12828C30.0616 8.12548 30.625 6.76539 30.625 5.34722ZM21.875 5.34722C21.875 4.44475 22.2335 3.57924 22.8716 2.9411C23.5098 2.30295 24.3753 1.94444 25.2778 1.94444C26.1803 1.94444 27.0458 2.30295 27.6839 2.9411C28.3221 3.57924 28.6806 4.44475 28.6806 5.34722C28.6806 6.24969 28.3221 7.1152 27.6839 7.75335C27.0458 8.39149 26.1803 8.75 25.2778 8.75C24.3753 8.75 23.5098 8.39149 22.8716 7.75335C22.2335 7.1152 21.875 6.24969 21.875 5.34722ZM26.25 35C28.5706 35 30.7962 34.0781 32.4372 32.4372C34.0781 30.7962 35 28.5706 35 26.25C35 23.9294 34.0781 21.7038 32.4372 20.0628C30.7962 18.4219 28.5706 17.5 26.25 17.5C23.9294 17.5 21.7038 18.4219 20.0628 20.0628C18.4219 21.7038 17.5 23.9294 17.5 26.25C17.5 28.5706 18.4219 30.7962 20.0628 32.4372C21.7038 34.0781 23.9294 35 26.25 35ZM26.25 21.3889C26.5078 21.3889 26.7551 21.4913 26.9375 21.6736C27.1198 21.856 27.2222 22.1033 27.2222 22.3611V25.2778H30.1389C30.3967 25.2778 30.644 25.3802 30.8264 25.5625C31.0087 25.7449 31.1111 25.9921 31.1111 26.25C31.1111 26.5078 31.0087 26.7551 30.8264 26.9375C30.644 27.1198 30.3967 27.2222 30.1389 27.2222H27.2222V30.1389C27.2222 30.3967 27.1198 30.644 26.9375 30.8264C26.7551 31.0087 26.5078 31.1111 26.25 31.1111C25.9921 31.1111 25.7449 31.0087 25.5625 30.8264C25.3802 30.644 25.2778 30.3967 25.2778 30.1389V27.2222H22.3611C22.1033 27.2222 21.856 27.1198 21.6736 26.9375C21.4913 26.7551 21.3889 26.5078 21.3889 26.25C21.3889 25.9921 21.4913 25.7449 21.6736 25.5625C21.856 25.3802 22.1033 25.2778 22.3611 25.2778H25.2778V22.3611C25.2778 22.1033 25.3802 21.856 25.5625 21.6736C25.7449 21.4913 25.9921 21.3889 26.25 21.3889Z" fill="white"/>
</svg>
