<svg width="28" height="30" viewBox="0 0 28 30" fill="none" xmlns="http://www.w3.org/2000/svg">
<path d="M14.9729 12.3618C17.4806 12.3618 19.5135 10.2496 19.5135 7.64405C19.5135 5.03849 17.4806 2.92627 14.9729 2.92627C12.4652 2.92627 10.4324 5.03849 10.4324 7.64405C10.4324 10.2496 12.4652 12.3618 14.9729 12.3618Z" stroke="#393030" stroke-width="4" stroke-linecap="round" stroke-linejoin="round"/>
<path d="M2 27.8631C2 21.9072 7.22746 17.0796 13.6757 17.0796" stroke="#393030" stroke-width="4" stroke-linecap="round" stroke-linejoin="round"/>
<path d="M16.9189 21.1235H26V27.8632H16.9189V21.1235Z" stroke="#393030" stroke-width="4" stroke-linecap="round" stroke-linejoin="round"/>
<path d="M23.4054 21.1234V19.1015C23.4054 18.5653 23.2004 18.051 22.8354 17.6718C22.4705 17.2926 21.9755 17.0796 21.4594 17.0796C20.9433 17.0796 20.4484 17.2926 20.0834 17.6718C19.7185 18.051 19.5135 18.5653 19.5135 19.1015V21.1234" stroke="#393030" stroke-width="4" stroke-linecap="round" stroke-linejoin="round"/>
</svg>
