<svg width="128" height="108" viewBox="0 0 128 108" fill="none" xmlns="http://www.w3.org/2000/svg">
<path d="M116 0H84C77.375 0 72 5.18304 72 11.5714V42.4286C72 48.817 77.375 54 84 54H104V69.4286C104 77.9384 96.825 84.8571 88 84.8571H86C82.675 84.8571 80 87.4366 80 90.6429V102.214C80 105.421 82.675 108 86 108H88C110.1 108 128 90.7393 128 69.4286V11.5714C128 5.18304 122.625 0 116 0ZM44 0H12C5.375 0 0 5.18304 0 11.5714V42.4286C0 48.817 5.375 54 12 54H32V69.4286C32 77.9384 24.825 84.8571 16 84.8571H14C10.675 84.8571 8 87.4366 8 90.6429V102.214C8 105.421 10.675 108 14 108H16C38.1 108 56 90.7393 56 69.4286V11.5714C56 5.18304 50.625 0 44 0Z" fill="#2A2727" fill-opacity="0.2"/>
</svg>
