<svg width="17" height="19" viewBox="0 0 17 19" fill="none" xmlns="http://www.w3.org/2000/svg">
<path d="M16.8161 16.963L16.8161 16.963M16.8161 16.963L16.8134 16.9604L16.8134 16.9604L16.8161 16.963M16.8161 16.963L16.8161 16.963M16.8161 16.963L16.8161 16.963M16.8161 16.963L16.9489 17.0897L16.8161 16.963ZM11.0279 10.7461L10.7787 11.084L11.0684 11.3879L16.3811 16.9602L15.8994 17.4643L10.6191 11.9281L10.301 11.5946L9.94278 11.8845C8.92325 12.7096 7.68239 13.1551 6.37497 13.1551C4.8112 13.1551 3.34091 12.5184 2.23005 11.3512L2.22975 11.3509C1.1178 10.1846 0.5 8.62847 0.5 6.96852C0.5 5.30605 1.11586 3.75243 2.22945 2.58648L2.22975 2.58616C3.34095 1.42066 4.81362 0.781982 6.37497 0.781982C7.93671 0.781982 9.40909 1.4187 10.5199 2.58584C11.6324 3.75474 12.2499 5.30668 12.2499 6.96852C12.2499 8.35782 11.8193 9.67302 11.0279 10.7461ZM16.5871 17.1763C16.587 17.1761 16.5868 17.1759 16.5866 17.1757L16.587 17.1762L16.5871 17.1763ZM15.6609 17.7138C15.6611 17.7137 15.6612 17.7135 15.6614 17.7134L15.6609 17.7138ZM16.1374 17.7138C16.1376 17.714 16.1378 17.7142 16.1379 17.7143L16.1377 17.7142L16.1374 17.7138ZM10.1024 10.8445L10.1028 10.844C11.0927 9.80577 11.635 8.4264 11.635 6.96852C11.635 5.5103 11.0925 4.1335 10.1032 3.09343C9.11205 2.05134 7.78563 1.47591 6.37497 1.47591C4.96347 1.47591 3.63989 2.05416 2.64751 3.09258L2.6471 3.09301C1.65722 4.13127 1.11499 5.51064 1.11499 6.96852C1.11499 8.42674 1.65743 9.80354 2.64669 10.8436L2.64751 10.8445C3.63989 11.8829 4.96347 12.4611 6.37497 12.4611C7.78648 12.4611 9.11006 11.8829 10.1024 10.8445Z" fill="white"/>
<path d="M16.8161 16.963L16.8161 16.963M16.8161 16.963L16.8134 16.9604L16.8134 16.9604L16.8161 16.963M16.8161 16.963L16.8161 16.963M16.8161 16.963L16.8161 16.963M16.8161 16.963L16.9489 17.0897L16.8161 16.963ZM11.0279 10.7461L10.7787 11.084L11.0684 11.3879L16.3811 16.9602L15.8994 17.4643L10.6191 11.9281L10.301 11.5946L9.94278 11.8845C8.92325 12.7096 7.68239 13.1551 6.37497 13.1551C4.8112 13.1551 3.34091 12.5184 2.23005 11.3512L2.22975 11.3509C1.1178 10.1846 0.5 8.62847 0.5 6.96852C0.5 5.30605 1.11586 3.75243 2.22945 2.58648L2.22975 2.58616C3.34095 1.42066 4.81362 0.781982 6.37497 0.781982C7.93671 0.781982 9.40909 1.4187 10.5199 2.58584C11.6324 3.75474 12.2499 5.30668 12.2499 6.96852C12.2499 8.35782 11.8193 9.67302 11.0279 10.7461ZM16.5871 17.1763C16.587 17.1761 16.5868 17.1759 16.5866 17.1757L16.587 17.1762L16.5871 17.1763ZM15.6609 17.7138C15.6611 17.7137 15.6612 17.7135 15.6614 17.7134L15.6609 17.7138ZM16.1374 17.7138C16.1376 17.714 16.1378 17.7142 16.1379 17.7143L16.1377 17.7142L16.1374 17.7138ZM10.1024 10.8445L10.1028 10.844C11.0927 9.80577 11.635 8.4264 11.635 6.96852C11.635 5.5103 11.0925 4.1335 10.1032 3.09343C9.11205 2.05134 7.78563 1.47591 6.37497 1.47591C4.96347 1.47591 3.63989 2.05416 2.64751 3.09258L2.6471 3.09301C1.65722 4.13127 1.11499 5.51064 1.11499 6.96852C1.11499 8.42674 1.65743 9.80354 2.64669 10.8436L2.64751 10.8445C3.63989 11.8829 4.96347 12.4611 6.37497 12.4611C7.78648 12.4611 9.11006 11.8829 10.1024 10.8445Z" fill="white"/>
<path d="M16.8161 16.963L16.8161 16.963M16.8161 16.963L16.8134 16.9604L16.8134 16.9604L16.8161 16.963M16.8161 16.963L16.8161 16.963M16.8161 16.963L16.8161 16.963M16.8161 16.963L16.9489 17.0897L16.8161 16.963ZM11.0279 10.7461L10.7787 11.084L11.0684 11.3879L16.3811 16.9602L15.8994 17.4643L10.6191 11.9281L10.301 11.5946L9.94278 11.8845C8.92325 12.7096 7.68239 13.1551 6.37497 13.1551C4.8112 13.1551 3.34091 12.5184 2.23005 11.3512L2.22975 11.3509C1.1178 10.1846 0.5 8.62847 0.5 6.96852C0.5 5.30605 1.11586 3.75243 2.22945 2.58648L2.22975 2.58616C3.34095 1.42066 4.81362 0.781982 6.37497 0.781982C7.93671 0.781982 9.40909 1.4187 10.5199 2.58584C11.6324 3.75474 12.2499 5.30668 12.2499 6.96852C12.2499 8.35782 11.8193 9.67302 11.0279 10.7461ZM16.5871 17.1763C16.587 17.1761 16.5868 17.1759 16.5866 17.1757L16.587 17.1762L16.5871 17.1763ZM15.6609 17.7138C15.6611 17.7137 15.6612 17.7135 15.6614 17.7134L15.6609 17.7138ZM16.1374 17.7138C16.1376 17.714 16.1378 17.7142 16.1379 17.7143L16.1377 17.7142L16.1374 17.7138ZM10.1024 10.8445L10.1028 10.844C11.0927 9.80577 11.635 8.4264 11.635 6.96852C11.635 5.5103 11.0925 4.1335 10.1032 3.09343C9.11205 2.05134 7.78563 1.47591 6.37497 1.47591C4.96347 1.47591 3.63989 2.05416 2.64751 3.09258L2.6471 3.09301C1.65722 4.13127 1.11499 5.51064 1.11499 6.96852C1.11499 8.42674 1.65743 9.80354 2.64669 10.8436L2.64751 10.8445C3.63989 11.8829 4.96347 12.4611 6.37497 12.4611C7.78648 12.4611 9.11006 11.8829 10.1024 10.8445Z" stroke="#FBF8F8"/>
</svg>
