<svg width="17" height="18" viewBox="0 0 17 18" fill="none" xmlns="http://www.w3.org/2000/svg">
<path d="M5.07568 3.22629C5.07729 3.06263 5.11877 2.90916 5.19543 2.78324C5.27209 2.65733 5.38086 2.564 5.50943 2.51382C5.63799 2.46364 5.78123 2.45862 5.92291 2.49932C6.0646 2.54002 6.19907 2.62482 6.31112 2.74412L8.92975 5.52946L12.1094 4.89888C12.2454 4.8719 12.3906 4.89114 12.5286 4.95443C12.6665 5.01771 12.7916 5.12252 12.8899 5.25699C12.9881 5.39147 13.0555 5.55023 13.0844 5.71534C13.1133 5.88044 13.1026 6.04529 13.0534 6.19124L11.906 9.60334L13.8317 13.0369C13.9141 13.1837 13.9622 13.349 13.9708 13.5139C13.9793 13.6788 13.948 13.8368 13.8801 13.97C13.8123 14.1032 13.7108 14.2063 13.5871 14.2677C13.4634 14.3291 13.3224 14.3462 13.18 14.3173L9.85249 13.6398L7.86224 16.3927C7.77707 16.5102 7.66172 16.5929 7.5292 16.6314C7.39668 16.6699 7.25228 16.6627 7.11229 16.6106C6.9723 16.5586 6.8423 16.4637 6.73697 16.3367C6.63163 16.2097 6.55516 16.0557 6.51617 15.892L5.60592 12.0612L2.45091 10.3292C2.3159 10.2552 2.19634 10.1412 2.10576 10.0001C2.01518 9.85909 1.95719 9.69665 1.93836 9.53119C1.91953 9.36574 1.9406 9.20386 1.9992 9.06387C2.05779 8.92388 2.15157 8.81137 2.26992 8.73907L5.0361 7.04909L5.07601 3.22713L5.07568 3.22629Z" fill="#312D2D" fill-opacity="0.1"/>
</svg>
