<svg width="8" height="9" viewBox="0 0 8 9" fill="none" xmlns="http://www.w3.org/2000/svg">
<path d="M6.34694 1.41C6.34694 1.41 6.60714 1.66 6.34694 1.41C5.99818 1.01981 5.80598 0.518716 5.80612 0H4.22959V6.2C4.21743 6.53551 4.07289 6.85331 3.82641 7.08647C3.57993 7.31963 3.25074 7.44995 2.90816 7.45C2.18367 7.45 1.58163 6.87 1.58163 6.15C1.58163 5.29 2.42857 4.645 3.30102 4.91V3.33C1.54082 3.1 0 4.44 0 6.15C0 7.815 1.40816 9 2.90306 9C4.5051 9 5.80612 7.725 5.80612 6.15V3.005C6.44541 3.45493 7.21294 3.69632 8 3.695V2.15C8 2.15 7.04082 2.195 6.34694 1.41Z" fill="#9494A1"/>
</svg>
