<svg width="10" height="9" viewBox="0 0 10 9" fill="none" xmlns="http://www.w3.org/2000/svg">
<path d="M10 1.06909C9.63226 1.24483 9.23206 1.37131 8.81985 1.42057C9.24782 1.1389 9.56831 0.69391 9.72119 0.169088C9.31959 0.433748 8.87965 0.619332 8.42086 0.717609C8.22911 0.490514 7.9972 0.3096 7.73958 0.18614C7.48195 0.0626794 7.20414 -0.000681369 6.92345 5.52568e-06C5.78777 5.52568e-06 4.87441 1.01983 4.87441 2.27131C4.87441 2.44705 4.89364 2.62279 4.92489 2.79187C3.22437 2.69335 1.70773 1.79335 0.699435 0.41539C0.515714 0.763029 0.419437 1.15886 0.420622 1.56169C0.420622 2.34986 0.782358 3.04483 1.33397 3.45355C1.0089 3.43937 0.691435 3.34039 0.407403 3.16465V3.19261C0.407403 4.2963 1.11165 5.21095 2.05023 5.4213C1.874 5.47202 1.69271 5.49796 1.51064 5.49852C1.37724 5.49852 1.25105 5.48388 1.12366 5.46391C1.38325 6.36391 2.13917 7.0176 3.0393 7.03891C2.33506 7.65 1.45295 8.00947 0.495133 8.00947C0.323279 8.00947 0.164644 8.00281 0 7.98151C0.908545 8.62722 1.98654 9 3.14746 9C6.91624 9 8.97849 5.54113 8.97849 2.53891C8.97849 2.44039 8.97849 2.34187 8.97248 2.24335C9.37147 1.91983 9.72119 1.51909 10 1.06909Z" fill="#9494A1"/>
</svg>
