<svg width="10" height="7" viewBox="0 0 10 7" fill="none" xmlns="http://www.w3.org/2000/svg">
<path d="M9.79657 1.10056C9.73966 0.889441 9.62844 0.696908 9.47398 0.542122C9.31952 0.387337 9.12721 0.275697 8.91619 0.218316C8.13375 0.00350069 5.00346 3.795e-06 5.00346 3.795e-06C5.00346 3.795e-06 1.87368 -0.00349331 1.09073 0.201831C0.879841 0.261852 0.687925 0.37507 0.533406 0.530616C0.378888 0.686161 0.266955 0.87881 0.208353 1.09007C0.00199941 1.8724 7.32054e-07 3.495 7.32054e-07 3.495C7.32054e-07 3.495 -0.00199785 5.12561 0.202857 5.89994C0.317776 6.32807 0.655038 6.66628 1.08373 6.78168C1.87418 6.9965 4.99597 7 4.99597 7C4.99597 7 8.12625 7.00349 8.9087 6.79867C9.1198 6.74139 9.31229 6.63001 9.46713 6.47554C9.62197 6.32107 9.73381 6.12886 9.79157 5.91793C9.99843 5.1361 9.99993 3.51399 9.99993 3.51399C9.99993 3.51399 10.0099 1.88289 9.79657 1.10056ZM4.00217 4.99821L4.00467 2.00079L6.60633 3.502L4.00217 4.99821Z" fill="#9494A1"/>
</svg>
